<svg xmlns="http://www.w3.org/2000/svg" xmlns:xlink="http://www.w3.org/1999/xlink" width="18" height="210.28" viewBox="0 0 18 210.28"><defs><clipPath id="a"><rect y="30" width="18" height="10" style="fill:none"/></clipPath><clipPath id="d"><rect y="60" width="18" height="10" style="fill:none"/></clipPath><clipPath id="g"><rect y="70" width="18" height="10" style="fill:none"/></clipPath><clipPath id="i"><rect y="80" width="18" height="10" style="fill:none"/></clipPath><clipPath id="l"><rect y="90" width="18" height="10" style="fill:none"/></clipPath><clipPath id="o"><rect y="100" width="18" height="10" style="fill:none"/></clipPath><clipPath id="r"><rect y="110" width="18" height="10" style="fill:none"/></clipPath><clipPath id="t"><rect y="120" width="18" height="10" style="fill:none"/></clipPath><clipPath id="af"><rect y="130" width="18" height="10" style="fill:none"/></clipPath><clipPath id="al"><circle cx="9" cy="205" r="2.64" style="fill:none"/></clipPath></defs><title>flags</title><polygon points="18 8.8 18 9.2 18 9.9 18 10 16.8 10 16.3 10 16.1 10 10.5 6.9 10.5 10 9.9 10 9 10 8.1 10 7.5 10 7.5 6.9 1.9 10 1.2 10 0 10 0 10 18 10 18 0 18 0.7 18 1 18 1.1 14 3.3 18 3.3 18 4 18 5 18 6 18 6.6 14 6.6 18 8.8" style="fill:#1a237b"/><polygon points="4 6.6 0 6.6 0 8.8 4 6.6" style="fill:#1a237b"/><polygon points="15.8 0 10.4 0 10.4 3 15.8 0" style="fill:#1a237b"/><polygon points="7.4 3 7.4 0 2 0 7.4 3" style="fill:#1a237b"/><polygon points="0 1.1 0 3.3 4 3.3 0 1.1" style="fill:#1a237b"/><polygon points="10.8 4 12.1 4 12.6 4 12.8 4 18 4 18 3.3 14 3.3 18 1.1 18 1 18 0.7 18 0 12 3.3 10.7 3.3 16.7 0 16 0 10.5 3 10.5 0 9.9 0 9.9 3.4 9.9 3.7 9.9 4 10.8 4" style="fill:#fff"/><polygon points="5.2 4 5.9 4 7.2 4 8.1 4 8.1 3.7 8.1 3.5 8.1 3.4 8.1 0 7.5 0 7.5 3 2 0 0 0 6 3.3 4.7 3.3 0 0.7 0 1.1 4 3.3 0 3.3 0 4 5.2 4" style="fill:#fff"/><polygon points="16.8 10 18 10 18 9.9 12 6.6 13.3 6.6 18 9.2 18 8.8 14 6.6 18 6.6 18 6 12.8 6 12.1 6 10.8 6 9.9 6 9.9 6.2 9.9 6.5 9.9 6.6 9.9 10 10.5 10 10.5 6.9 16.1 10 16.3 10 16.8 10" style="fill:#fff"/><polygon points="1.2 10 1.9 10 7.5 6.9 7.5 10 8.1 10 8.1 6.6 8.1 6.2 8.1 6 7.2 6 5.9 6 5.4 6 5.2 6 0 6 0 6.6 4 6.6 0 8.8 0 9.9 6 6.6 7.3 6.6 1.2 10" style="fill:#fff"/><polygon points="0 9.9 0 10 1.2 10 7.3 6.6 6 6.6 0 9.9" style="fill:#bd0034"/><polygon points="0 0 0 0.7 4.7 3.3 6 3.3 0 0" style="fill:#bd0034"/><polygon points="12 3.3 18 0 16.7 0 10.7 3.3 12 3.3" style="fill:#bd0034"/><polygon points="13.3 6.6 12 6.6 18 9.9 18 9.2 13.3 6.6" style="fill:#bd0034"/><polygon points="5.4 6 5.9 6 7.2 6 8.1 6 8.1 6.2 8.1 6.6 8.1 10 9 10 9.9 10 9.9 6.6 9.9 6.5 9.9 6.2 9.9 6 10.8 6 12.1 6 12.8 6 18 6 18 5 18 4 12.8 4 12.6 4 12.1 4 10.8 4 9.9 4 9.9 3.7 9.9 3.4 9.9 0 8.1 0 8.1 3.4 8.1 3.5 8.1 3.7 8.1 4 7.2 4 5.9 4 5.2 4 0 4 0 6 5.2 6 5.4 6" style="fill:#bd0034"/><rect y="10" width="18" height="10" style="fill:#b5002a"/><rect y="12.5" width="18" height="5" style="fill:#f4c327"/><rect y="20" width="18" height="3.3"/><rect y="23.3" width="18" height="3.3" style="fill:#e1001f"/><rect y="26.7" width="18" height="3.3" style="fill:#f6d928"/><g style="clip-path:url(#a)"><rect y="30" width="6" height="10" style="fill:#323e95"/></g><g style="clip-path:url(#a)"><rect x="6" y="30" width="6" height="10" style="fill:#f4f4f4"/></g><g style="clip-path:url(#a)"><rect x="12" y="30" width="6" height="10" style="fill:#d80031"/></g><rect x="6.3" y="40" width="11.7" height="10" style="fill:#ea0020"/><rect y="40" width="6.3" height="10" style="fill:#2a680b"/><path d="M8.4,47a12,12,0,0,1-4.2-2.5l.2-.3a15.68,15.68,0,0,0,4.2,2.5Z" style="fill:#fcff2c"/><path d="M4.4,44.2c-.1.2.9.8,2.1,1.5a19.63,19.63,0,0,0,2.2,1.1v-.1H8.6a15,15,0,0,1-2.1-1.1A11.81,11.81,0,0,1,4.4,44.2ZM8.5,47c0,.1-.1.1,0,0a6.36,6.36,0,0,1-2.2-1c-1.2-.7-2.1-1.3-2-1.5v-.1h0c-.1.3,1.9,1.4,2,1.5A4.83,4.83,0,0,0,8.5,47Z" style="fill:#fcff2c"/><path d="M8.4,47.1h0a10.92,10.92,0,0,1-2.2-1c-1.3-.8-2-1.3-2-1.5v-.2h0c0,.2.7.7,2,1.5a10.21,10.21,0,0,0,2.2,1.2h0c-.2-.1-1.1-.5-2.1-1.1H6.2c-1.3-.8-2-1.2-2-1.4,0,.1.3.5,2,1.4h.1C7.3,46.6,8.2,47,8.4,47.1Zm.3-.4a7.82,7.82,0,0,1-2.2-1.1c-1.3-.8-2.1-1.3-2.1-1.5V44h0v.1c-.1.2,1.1.9,2.1,1.5a6.79,6.79,0,0,0,2.2,1.1h0L6.5,45.6a14,14,0,0,1-2-1.4h0c.1.3,1.2.9,2,1.4A8.72,8.72,0,0,0,8.7,46.7Z"/><path d="M6.5,44.7a6.84,6.84,0,0,0,2.2-.3l-.1-.2a5.18,5.18,0,0,1-2.1.3,5.18,5.18,0,0,1-2.1-.3l-.1.2A5.14,5.14,0,0,0,6.5,44.7Z" style="fill:#fcff2c"/><path d="M8.8,44.4s-.4.1-.9.2a5.06,5.06,0,0,1-1.4.1,5.15,5.15,0,0,1-1.3-.1c-.5-.1-.8-.2-.9-.2v-.1a3.09,3.09,0,0,0,.9.2c.3,0,.8.1,1.3.1a6,6,0,0,0,1.4-.1A5.51,5.51,0,0,0,8.8,44.4Zm-.1-.2c-.1,0-.3.1-.8.2-.3,0-.8.1-1.3.1a5.15,5.15,0,0,1-1.3-.1c-.5-.1-.8-.2-.9-.2h0c.1,0,.3.1.9.2.3,0,.7.1,1.2.1a5.15,5.15,0,0,0,1.3-.1C8.3,44.3,8.6,44.2,8.7,44.2Z" style="fill:#fcff2c"/><path d="M6.5,44.8a5.15,5.15,0,0,1-1.3-.1c-.5-.1-.8-.2-.9-.2h0a3.09,3.09,0,0,0,.9.2,6.28,6.28,0,0,1,1.3.1c.5-.1.9-.1,1.4-.2a7.19,7.19,0,0,0,.8-.2v.1a2.15,2.15,0,0,1-.9.2C7.4,44.7,7,44.8,6.5,44.8Zm-2.2-.4h0a2.18,2.18,0,0,0,.9.3,5.15,5.15,0,0,0,1.3.1h0a6.56,6.56,0,0,0,1.4-.1c.5-.1.9-.2.9-.2v-.1a1.49,1.49,0,0,1-.8.2,6.56,6.56,0,0,1-1.4.1,5.15,5.15,0,0,1-1.3-.1A3.12,3.12,0,0,1,4.3,44.4Zm2.2.2a4,4,0,0,1-1.2-.1c-.4-.1-.7-.2-.8-.2h0a7.19,7.19,0,0,0,.8.2,2.72,2.72,0,0,1,1.2.1c.5-.1.9-.1,1.3-.2a7.19,7.19,0,0,0,.8-.2v.1c-.1.1-.3.2-.8.2S7,44.6,6.5,44.6Zm-2.1-.4h0a2.28,2.28,0,0,0,.8.3,4.83,4.83,0,0,0,1.2.1h0a5.15,5.15,0,0,0,1.3-.1,7.19,7.19,0,0,0,.8-.2v-.1a1.49,1.49,0,0,1-.8.2,5.15,5.15,0,0,1-1.3.1,4.37,4.37,0,0,1-1.3-.1C4.7,44.3,4.5,44.2,4.4,44.2Z"/><path d="M4,45.6a5.63,5.63,0,0,0,2.5.4A6,6,0,0,0,9,45.6v-.2a5.63,5.63,0,0,1-2.5.4A6.66,6.66,0,0,1,4,45.4Z" style="fill:#fcff2c"/><path d="M9,45.6H9a1.68,1.68,0,0,1-1,.3,6.84,6.84,0,0,1-1.5.1,5.06,5.06,0,0,1-1.4-.1c-.6-.1-1-.2-1-.3v-.1a3.5,3.5,0,0,0,1,.3,4.43,4.43,0,0,0,1.4.2A6.84,6.84,0,0,0,8,45.9,4.28,4.28,0,0,0,9,45.6Zm0-.2H9a1.68,1.68,0,0,1-1,.3,6.84,6.84,0,0,1-1.5.1,5.06,5.06,0,0,1-1.4-.1c-.6-.1-1-.2-1-.3v-.1a3.5,3.5,0,0,0,1,.3,6,6,0,0,0,1.4.1A6.84,6.84,0,0,0,8,45.6,2.16,2.16,0,0,0,9,45.4Z" style="fill:#fcff2c"/><path d="M6.5,46a6,6,0,0,1-1.4-.1,2.24,2.24,0,0,1-1-.3v-.1a4.17,4.17,0,0,0,1.1.3,4.41,4.41,0,0,0,1.3.2c.5,0,1.1-.1,1.5-.1a4.43,4.43,0,0,0,1-.3v.1A2.9,2.9,0,0,1,8,46ZM4,45.6H4a2.24,2.24,0,0,0,1,.3,7.57,7.57,0,0,0,1.5.1A6.88,6.88,0,0,0,8,45.9a2.9,2.9,0,0,0,1-.3v-.1a4.43,4.43,0,0,1-1,.3,3.64,3.64,0,0,1-1.5.2,6,6,0,0,1-1.4-.1A3.53,3.53,0,0,1,4,45.6Zm2.5.2a6,6,0,0,1-1.4-.1,2.24,2.24,0,0,1-1-.3v-.1a4.17,4.17,0,0,0,1.1.3,4.41,4.41,0,0,0,1.3.2c.5,0,1.1-.1,1.5-.1a4.43,4.43,0,0,0,1-.3v.1a2.9,2.9,0,0,1-1,.3ZM4,45.4H4a2.24,2.24,0,0,0,1,.3,6,6,0,0,0,1.4.1,6.84,6.84,0,0,0,1.5-.1,2.9,2.9,0,0,0,1-.3v-.1a4.43,4.43,0,0,1-1,.3,6.88,6.88,0,0,1-1.5.1A6,6,0,0,1,5,45.6,3.78,3.78,0,0,1,4,45.4Z"/><path d="M6.5,47a11.65,11.65,0,0,1-2.2-.3l.1.2a4.87,4.87,0,0,0,2,.3,5.65,5.65,0,0,0,2-.3l.1-.2A7.51,7.51,0,0,1,6.5,47Z" style="fill:#fcff2c"/><path d="M8.6,46.8c0,.1-.1.1,0,0a1.9,1.9,0,0,1-.8.3,5.15,5.15,0,0,1-1.3.1,5.2,5.2,0,0,1-2.1-.4v-.1h0a7.11,7.11,0,0,0,2.1.3c.4,0,.9-.1,1.2-.1C8.3,47,8.5,46.9,8.6,46.8Zm.1-.2h0a4.43,4.43,0,0,1-1,.3,3.47,3.47,0,0,1-1.2.1,10.22,10.22,0,0,1-2.2-.3v-.1a14.93,14.93,0,0,0,2.2.4c.6,0,.8-.1,1.2-.1A2.24,2.24,0,0,0,8.7,46.6Z" style="fill:#fcff2c"/><path d="M6.5,47.2h0a4.74,4.74,0,0,1-2.1-.4v-.1h0a6.64,6.64,0,0,0,2.1.5h0c.5-.1.9-.1,1.2-.2a3.24,3.24,0,0,0,.8-.2h0a.09.09,0,0,1-.1.1,2.41,2.41,0,0,1-.8.2A3.4,3.4,0,0,1,6.5,47.2Zm-2.1-.4h0a5.2,5.2,0,0,0,2.1.4,4.4,4.4,0,0,0,1.2-.1,3.24,3.24,0,0,0,.8-.2v-.1a7.19,7.19,0,0,1-.8.2,4,4,0,0,1-1.2.1h0A4.71,4.71,0,0,1,4.4,46.8Zm2.1.2h0a8.22,8.22,0,0,1-2.2-.3v-.1a20.72,20.72,0,0,0,2.2.4c.5-.1.8-.1,1.1-.2h.1c.6-.1.8-.2.9-.2h0c-.1,0-.4.1-1,.2H7.5a2.16,2.16,0,0,1-1,.2,20.72,20.72,0,0,1-2.2-.4h0a5,5,0,0,0,2.2.4,6.64,6.64,0,0,0,1-.1h.1a5.71,5.71,0,0,1,1-.2h0a2.16,2.16,0,0,1-1,.2H7.5A2.25,2.25,0,0,1,6.5,47Z"/><path d="M6.5,43.3a2.2,2.2,0,1,1-2.2,2.2,2.19,2.19,0,0,1,2.2-2.2Zm0-.2a2.4,2.4,0,1,1-2.4,2.4,2.39,2.39,0,0,1,2.4-2.4Z" style="fill:#fcff2c"/><path d="M6.5,43A2.48,2.48,0,0,1,9,45.46H9A2.54,2.54,0,0,1,6.5,48,2.54,2.54,0,0,1,4,45.5,2.48,2.48,0,0,1,6.46,43h0Zm0,.1a2.4,2.4,0,1,1-2.4,2.4,2.39,2.39,0,0,1,2.4-2.4Z" style="fill:#fcff2c"/><path d="M6.5,48A2.5,2.5,0,1,1,9,45.5H9A2.5,2.5,0,0,1,6.5,48Zm0-4.9a2.4,2.4,0,0,0,0,4.8h0A2.46,2.46,0,0,0,9,45.5a2.39,2.39,0,0,0-2.38-2.4H6.5Zm0,4.8a2.4,2.4,0,1,1,2.4-2.4,2.39,2.39,0,0,1-2.4,2.4Zm0-4.8a2.4,2.4,0,1,0,2.4,2.4,2.39,2.39,0,0,0-2.4-2.4Z"/><path d="M6.5,43.2a2.31,2.31,0,0,1,2.3,2.2,2.24,2.24,0,0,1-2.28,2.2h0a2.31,2.31,0,0,1-2.3-2.2A2.38,2.38,0,0,1,6.5,43.2Zm0,.1a2.2,2.2,0,1,1-2.2,2.2,2.19,2.19,0,0,1,2.2-2.2Z" style="fill:#fcff2c"/><path d="M6.5,47.7a2.3,2.3,0,1,1,2.3-2.3h0A2.34,2.34,0,0,1,6.5,47.7Zm0-4.4a2.2,2.2,0,1,0,2.2,2.2,2.16,2.16,0,0,0-2.12-2.2H6.5Zm0,4.4a2.2,2.2,0,1,1,2.2-2.2,2.19,2.19,0,0,1-2.2,2.2Zm0-4.4a2.2,2.2,0,1,0,2.2,2.2,2.19,2.19,0,0,0-2.2-2.2Z"/><rect x="6.4" y="43" width="0.2" height="4.9" style="fill:#fcff2c"/><path d="M6.4,43" style="fill:none"/><path d="M6.4,48" style="fill:none"/><path d="M6.6,43h0l.1,5H6.6Zm-.2,0h0l.1,5H6.4Z" style="fill:#fcff2c"/><path d="M6.6,48h0l-.1-5h.1Zm0-5h0v5h0Zm-.2,5h0l-.1-5h.1Zm0-5h0v5h0Z"/><path d="M4,45.4a4.71,4.71,0,0,1,2.5-.5,5,5,0,0,1,2.5.5v.2a5.82,5.82,0,0,0-2.5-.5,4,4,0,0,0-2.5.5Z" style="fill:#fcff2c"/><path d="M4,45.6v-.2H4Z"/><path d="M9,45.6v-.2H9Z"/><path d="M6.5,45.1c.6,0,1.1.1,1.6.1a2.18,2.18,0,0,1,.9.3v.1c-.1-.2-.6-.3-.9-.3-.5-.1-1-.1-1.6-.2-.6.1-1.2.1-1.6.2a2.89,2.89,0,0,0-.9.3v-.1c0-.1.4-.2.9-.3A7.78,7.78,0,0,1,6.5,45.1Zm0-.2c.6,0,1.1.1,1.6.1a2.18,2.18,0,0,1,.9.3v.1c-.1-.2-.6-.3-.9-.3-.5-.1-1-.1-1.6-.2-.6.1-1.2.1-1.6.2a4.76,4.76,0,0,0-.9.3v-.1c0-.1.4-.2.9-.3A7.78,7.78,0,0,1,6.5,44.9Z" style="fill:#fcff2c"/><path d="M4,45.7H4c0-.2.4-.3.9-.4a7.78,7.78,0,0,1,1.6-.1c.6,0,1.1.1,1.6.1a2.18,2.18,0,0,1,.9.3v.1a1.4,1.4,0,0,0-.9-.3,7.78,7.78,0,0,0-1.6-.1c-.6,0-1.2.1-1.6.1S4.1,45.5,4,45.7Zm2.5-.5a7.78,7.78,0,0,1,1.6.1,4.76,4.76,0,0,1,.9.3v-.1a2.18,2.18,0,0,0-.9-.3,8.55,8.55,0,0,0-1.6,0,7.78,7.78,0,0,0-1.6.1c-.5.1-.9.2-.9.3H4a1.93,1.93,0,0,1,.9-.3A7.78,7.78,0,0,1,6.5,45.2ZM4,45.5H4c0-.2.4-.3.9-.4A7.78,7.78,0,0,1,6.5,45c.6,0,1.1.1,1.6.1a2.18,2.18,0,0,1,.9.3v.1a1.4,1.4,0,0,0-.9-.3A4.15,4.15,0,0,0,6.5,45c-.6,0-1.2.1-1.6.1A1.08,1.08,0,0,0,4,45.5ZM6.5,45a7.78,7.78,0,0,1,1.6.1,4.76,4.76,0,0,1,.9.3v-.1a2.18,2.18,0,0,0-.9-.3,8.55,8.55,0,0,0-1.6,0,7.78,7.78,0,0,0-1.6.1c-.5.1-.9.2-.9.3H4a1.93,1.93,0,0,1,.9-.3A7.78,7.78,0,0,1,6.5,45Z"/><path d="M6.5,43.8a5.36,5.36,0,0,1,2.1.3l.1.2A5.46,5.46,0,0,0,6.5,44a6.84,6.84,0,0,0-2.2.3l.2-.3A9,9,0,0,1,6.5,43.8Z" style="fill:#fcff2c"/><path d="M8.6,44.2l.1.1Z" style="fill:none"/><path d="M6.5,44a6,6,0,0,1,1.4.1c.4.1.7.2.8.2v.1a1.33,1.33,0,0,0-.8-.2c-.4-.1-.9-.1-1.4-.2-.6.1-1,.1-1.4.2s-.7.2-.8.2v-.1a1.17,1.17,0,0,1,.7-.2C5.5,44.1,5.9,44,6.5,44Zm0-.2a6,6,0,0,1,1.4.1,4.29,4.29,0,0,0,.7.2l.1.1a1.49,1.49,0,0,0-.8-.2c-.4-.1-.9-.1-1.4-.2-.5.1-1,.1-1.4.2s-.6.1-.7.2l.1-.1c.1-.1.3-.1.6-.2A6,6,0,0,1,6.5,43.8Z" style="fill:#fcff2c"/><path d="M8.8,44.4h0a1.33,1.33,0,0,0-.8-.2,5.06,5.06,0,0,0-1.4-.1H6.5a6,6,0,0,0-1.4.1c-.4.1-.7.2-.8.2v-.1a1.42,1.42,0,0,1,.7-.2c.4,0,.8-.1,1.5-.1h0a6,6,0,0,1,1.4.1A2.89,2.89,0,0,1,8.8,44.4ZM6.5,44h0a6.28,6.28,0,0,0-1.5.1,5.6,5.6,0,0,0-.7.2v.1a2.28,2.28,0,0,1,.8-.3A8.17,8.17,0,0,0,6.5,44h0c.6,0,1,.1,1.4.1a3.24,3.24,0,0,1,.8.2h0c0-.1-.4-.2-.8-.2S7.1,44,6.5,44Zm2.2.2h0a1.86,1.86,0,0,0-.8-.2,5.06,5.06,0,0,0-1.4-.1,6,6,0,0,0-1.4.1c-.3.1-.6.1-.7.2v-.1a5.6,5.6,0,0,1,.7-.2,6,6,0,0,1,1.4-.1h0a5.15,5.15,0,0,1,1.3.1,4.29,4.29,0,0,0,.7.2Zm-2.2-.3a6,6,0,0,1,1.4.1,1.86,1.86,0,0,1,.8.2v-.1a1.17,1.17,0,0,0-.7-.2,7.52,7.52,0,0,0-1.5,0h0a6,6,0,0,0-1.4.1c-.3,0-.5,0-.6.1v.1c0-.1.3-.2.6-.2A6,6,0,0,1,6.5,43.9Z"/><path d="M7.7,46.5a5.41,5.41,0,0,0-1.2-.1c-1.5,0-2,.3-2.1.4l-.1-.2a4.07,4.07,0,0,1,2.2-.4,5.15,5.15,0,0,1,1.3.1Z" style="fill:#fcff2c"/><path d="M4.3,46.7" style="fill:none"/><path d="M6.5,46.4a4.83,4.83,0,0,1,1.2.1v.1c-.4-.1-.8-.1-1.2-.2-.6.1-1.1.1-1.6.2-.2,0-.4.1-.4.2h0a.77.77,0,0,1,.5-.2A3.64,3.64,0,0,1,6.5,46.4Zm0-.2a5.66,5.66,0,0,1,1.3.1v.1c-.4-.1-.8-.1-1.3-.2a8.19,8.19,0,0,0-1.7.3,4.34,4.34,0,0,1-.5.2v-.1c0-.1.3-.2.5-.3A8.78,8.78,0,0,1,6.5,46.2Z" style="fill:#fcff2c"/><path d="M4.4,46.9h0c0-.1.1-.2.4-.3a4.57,4.57,0,0,1,1.6-.2,4.83,4.83,0,0,1,1.2.1v.1a4,4,0,0,0-1.2-.1H6.2a7.78,7.78,0,0,0-1.6.2C4.7,46.7,4.5,46.8,4.4,46.9Zm2.1-.5a4.15,4.15,0,0,0-1.6.2c-.3.1-.4.2-.5.2h0a.76.76,0,0,1,.4-.2,8.14,8.14,0,0,1,1.7-.2h0c.5,0,.9.1,1.2.1h0A4.83,4.83,0,0,0,6.5,46.4Zm-2.2.3h0c0-.2.4-.3.5-.3a8.14,8.14,0,0,1,1.7-.2,5.66,5.66,0,0,1,1.3.1v.1a5.15,5.15,0,0,0-1.3-.1,8.14,8.14,0,0,0-1.7.2C4.6,46.5,4.3,46.6,4.3,46.7Zm2.2-.5a7.52,7.52,0,0,0-1.7.2,4.34,4.34,0,0,0-.5.2h0c0-.1.4-.2.5-.2a8.14,8.14,0,0,1,1.7-.2,5.18,5.18,0,0,1,1.3.2h0A3,3,0,0,0,6.5,46.2Z"/><path d="M7.1,46.3"/><path d="M7.3,46.4"/><path d="M7.7,46.6h0l.1-.3h0Z" style="fill:#ea0020"/><path d="M4.4,44.1c.8,0,4.3,2.1,4.3,2.5l-.2.4c-.1-.5-3.6-2.5-4.2-2.5Z" style="fill:#fcff2c"/><path d="M8.7,46.7l-.2.3Z"/><path d="M4.4,44.1l-.1.4Z"/><path d="M4.2,44.5a7.48,7.48,0,0,1,2.3,1c1.1.7,2.1,1.4,2,1.5h0v-.1c0-.2-.8-.7-2-1.5A6.9,6.9,0,0,0,4.2,44.5Zm4.5,2.2c.1-.2-.9-.9-2.1-1.6a6,6,0,0,0-2.2-1v.1h.1a8.1,8.1,0,0,1,2.2,1C7.1,45.4,8.7,46.4,8.7,46.7Z" style="fill:#fcff2c"/><path d="M8.5,47.1h0c-.1,0,0-.1,0,0a7.19,7.19,0,0,0-2-1.5,6.85,6.85,0,0,0-2.2-1H4.2v-.1h.1a6.85,6.85,0,0,1,2.2,1C7.5,46.1,8.5,46.8,8.5,47.1ZM4.3,44.5a6.85,6.85,0,0,1,2.2,1,7.19,7.19,0,0,1,2,1.5h0c0-.2-1.1-.9-2-1.5A6.85,6.85,0,0,0,4.3,44.5Zm4.4,2.2h0c0-.3-1.6-1.3-2-1.6a8.1,8.1,0,0,0-2.2-1h0a8.1,8.1,0,0,1,2.2,1c.3.2,2,1.3,2,1.6h0c.1-.2-.8-.9-2-1.6a6,6,0,0,0-2.2-1v.1h0v-.1h.1a7.42,7.42,0,0,1,2.2,1C7.7,45.7,8.8,46.5,8.7,46.7Z"/><path d="M5,45.8a1.54,1.54,0,0,0,.4,1,1.29,1.29,0,0,0,1,.4,1.54,1.54,0,0,0,1-.4,1.29,1.29,0,0,0,.4-1h0v-2h-3Z" style="fill:#fff"/><path d="M6.5,47.2a1.54,1.54,0,0,1-1-.4,1.29,1.29,0,0,1-.4-1v-2h3v2a1.54,1.54,0,0,1-.4,1A1.87,1.87,0,0,1,6.5,47.2ZM8,43.8H5.1v2a1.54,1.54,0,0,0,.4,1,1.29,1.29,0,0,0,1,.4,1.54,1.54,0,0,0,1-.4,1.29,1.29,0,0,0,.4-1Z"/><path d="M5.1,45.8h0a1.81,1.81,0,0,0,.4,1,1.29,1.29,0,0,0,1,.4,1.81,1.81,0,0,0,1-.4,1.29,1.29,0,0,0,.4-1h0V43.9H5.1Zm2.2-1.4v1.3h0v.1a.72.72,0,0,1-.2.5.74.74,0,0,1-.6.2.83.83,0,0,1-.6-.3.74.74,0,0,1-.2-.6V44.3Z" style="fill:#ea0020"/><path d="M6.5,47.2a1.37,1.37,0,0,1-1.4-1.34h0v-2H7.9v1.9a1.29,1.29,0,0,1-.4,1A1.81,1.81,0,0,1,6.5,47.2Zm1.4-3.3H5.1v1.9a1.37,1.37,0,0,0,1.34,1.4H6.5a1.37,1.37,0,0,0,1.4-1.34h0v-2ZM6.5,46.6a.83.83,0,0,1-.6-.3.83.83,0,0,1-.3-.6V44.4H7.3v1.4a.72.72,0,0,1-.2.5A.83.83,0,0,1,6.5,46.6Zm-.8-2.2v1.3a1.42,1.42,0,0,0,.2.6.74.74,0,0,0,.6.2,1.42,1.42,0,0,0,.6-.2.72.72,0,0,0,.2-.5V44.4Z"/><path d="M6.3,45.6h0l.2.2c.1,0,.1,0,.1-.1l.1-.1v-.3H6.3Z" style="fill:#1a0095"/><path d="M6.6,45.4" style="fill:#fff"/><path d="M6.5,45.5" style="fill:#fff"/><path d="M6.6,45.6" style="fill:#fff"/><path d="M6.4,45.6" style="fill:#fff"/><path d="M6.4,45.4" style="fill:#fff"/><path d="M6.3,46.2h0l.2.2c.1,0,.1,0,.1-.1l.1-.1v-.3H6.3Z" style="fill:#1a0095"/><path d="M6.6,46" style="fill:#fff"/><path d="M6.5,46.1" style="fill:#fff"/><path d="M6.6,46.2" style="fill:#fff"/><path d="M6.4,46.2" style="fill:#fff"/><path d="M6.4,46" style="fill:#fff"/><path d="M5.8,45.6h0l.2.2c.1,0,.1,0,.1-.1l.1-.1v-.3H5.8Z" style="fill:#1a0095"/><path d="M6.1,45.4" style="fill:#fff"/><path d="M6,45.5" style="fill:#fff"/><path d="M6.1,45.6" style="fill:#fff"/><path d="M5.9,45.6" style="fill:#fff"/><path d="M5.9,45.4" style="fill:#fff"/><path d="M6.8,45.6h0l.2.2c.1,0,.1,0,.1-.1l.1-.1v-.3H6.8Z" style="fill:#1a0095"/><path d="M7.1,45.4" style="fill:#fff"/><path d="M7,45.5" style="fill:#fff"/><path d="M7.1,45.6" style="fill:#fff"/><path d="M6.9,45.6" style="fill:#fff"/><path d="M6.9,45.4" style="fill:#fff"/><path d="M6.3,44.9h0l.2.2c.1,0,.1,0,.1-.1l.1-.1v-.3H6.3Z" style="fill:#1a0095"/><path d="M6.6,44.7" style="fill:#fff"/><path d="M6.5,44.8" style="fill:#fff"/><path d="M6.6,44.9" style="fill:#fff"/><path d="M6.4,44.9" style="fill:#fff"/><path d="M6.4,44.7" style="fill:#fff"/><path d="M5.3,44.4a.35.35,0,0,1,.1-.2s.1,0,.1.2Z" style="fill:#fcff2c"/><path d="M5.2,44.2v.2h.1a.35.35,0,0,1,.1-.2s.1,0,.1.2h.1v-.2Z" style="fill:#fcff2c"/><path d="M5.6,44.4h0l-.2-.2a.09.09,0,0,0-.1.1H5.2v-.2h.4Zm-.2-.2H5.2v.2h.1C5.3,44.2,5.3,44.2,5.4,44.2Zm0,0s.1,0,.1.2h.1v-.2Z"/><path d="M5.2,44.4" style="fill:#fcff2c"/><path d="M5.6,44.4"/><path d="M5.3,44.4c0-.1.1-.1,0,0,.1-.1.2-.1.2,0Z" style="fill:#fcff2c"/><path d="M5.4,44.4"/><path d="M5.2,44.1h0C5.2,44.2,5.1,44.2,5.2,44.1Z" style="fill:#fcff2c"/><path d="M5.6,44.2"/><path d="M5.2,44.2" style="fill:#fcff2c"/><path d="M5.6,44.2"/><path d="M5.3,43.9" style="fill:#fcff2c"/><path d="M5.3,43.9"/><polygon points="5.3 44 5.4 44 5.4 44.1 5.3 44.1 5.3 44" style="fill:#fcff2c"/><path d="M5.4,44.1h0l-.1-.2h.1Zm0-.1h0l-.1.2h.1Z"/><path d="M5.4,44" style="fill:#fcff2c"/><path d="M5.6,44.1"/><polygon points="5.4 44 5.5 44 5.5 44.1 5.4 44.1 5.4 44" style="fill:#fcff2c"/><path d="M5.6,44.1H5.4V44Z"/><path d="M5.2,44" style="fill:#fcff2c"/><path d="M5.3,44.1"/><polygon points="5.2 44 5.3 44 5.3 44.1 5.2 44.1 5.2 44" style="fill:#fcff2c"/><path d="M5.3,44.1H5.2V44Z"/><path d="M5.4,44"/><path d="M5.5,44.1"/><path d="M5.2,44.1"/><path d="M6.4,43.9" style="fill:#fcff2c"/><path d="M6.6,44"/><polygon points="6.4 44.1 6.5 44 6.6 44.1 6.4 44.1" style="fill:#fcff2c"/><path d="M6.6,44.1H6.4v-.2h.1ZM6.5,44h0l-.1.2h.1Z"/><path d="M6.6,44" style="fill:#fcff2c"/><path d="M6.6,44"/><polygon points="6.6 44 6.7 44 6.7 44.1 6.6 44.1 6.6 44" style="fill:#fcff2c"/><path d="M6.7,44"/><path d="M6.3,44" style="fill:#fcff2c"/><path d="M6.3,44"/><polygon points="6.3 44 6.4 44 6.4 44.1 6.3 44.1 6.3 44" style="fill:#fcff2c"/><path d="M6.4,44"/><path d="M6.4,44.4a.35.35,0,0,1,.1-.2s.1,0,.1.2Z" style="fill:#fcff2c"/><path d="M6.3,44.2v.2h.1a.35.35,0,0,1,.1-.2s.1,0,.1.2h.1v-.2Z" style="fill:#fcff2c"/><path d="M6.7,44.4h0l-.2-.2a.09.09,0,0,0-.1.1H6.3v-.2h.4Zm-.2-.2H6.3v.2h.1C6.4,44.2,6.5,44.2,6.5,44.2Zm0,0s.1,0,.1.2h.1v-.2Z"/><path d="M6.3,44.4" style="fill:#fcff2c"/><path d="M6.7,44.4"/><path d="M6.4,44.4c0-.1.1-.1,0,0,.1-.1.2-.1.2,0Z" style="fill:#fcff2c"/><path d="M6.6,44.4H6.4C6.4,44.3,6.5,44.3,6.6,44.4Z"/><path d="M6.3,44.1" style="fill:#fcff2c"/><path d="M6.7,44.2"/><path d="M6.3,44.2" style="fill:#fcff2c"/><path d="M6.7,44.2"/><path d="M6.5,44"/><path d="M6.6,44.1"/><path d="M6.4,44.1"/><path d="M7.6,43.9" style="fill:#fcff2c"/><path d="M7.6,43.9"/><polygon points="7.6 44 7.7 44 7.7 44.1 7.6 44.1 7.6 44" style="fill:#fcff2c"/><path d="M7.7,44.1h0l-.1-.2h.1Zm0-.1h0l-.1.2h.1Z"/><path d="M7.7,44" style="fill:#fcff2c"/><path d="M7.8,44.1"/><polygon points="7.7 44 7.8 44 7.8 44.1 7.7 44.1 7.7 44" style="fill:#fcff2c"/><path d="M7.8,44.1H7.7V44Z"/><path d="M7.4,44" style="fill:#fcff2c"/><path d="M7.5,44"/><polygon points="7.4 44 7.5 44 7.5 44.1 7.4 44.1 7.4 44" style="fill:#fcff2c"/><path d="M7.6,44.1H7.4V44Z"/><path d="M7.5,44.4a.35.35,0,0,1,.1-.2s.1,0,.1.2Z" style="fill:#fcff2c"/><path d="M7.4,44.2v.2h.1a.35.35,0,0,1,.1-.2s.1,0,.1.2h.1v-.2Z" style="fill:#fcff2c"/><path d="M7.8,44.4H7.7a.35.35,0,0,0-.1-.2.09.09,0,0,0-.1.1H7.4v-.2h.4Zm-.2-.2H7.4v.2h.1C7.5,44.2,7.6,44.2,7.6,44.2Zm0,0s.1,0,.1.2h.1v-.2Z"/><path d="M7.4,44.4" style="fill:#fcff2c"/><path d="M7.8,44.4"/><path d="M7.6,44.4c0-.1.1-.1,0,0,.1-.1.2-.1.2,0Z" style="fill:#fcff2c"/><path d="M7.7,44.4h0C7.6,44.3,7.7,44.3,7.7,44.4Z"/><path d="M7.4,44.1" style="fill:#fcff2c"/><path d="M7.8,44.2"/><path d="M7.4,44.2" style="fill:#fcff2c"/><path d="M7.8,44.2"/><path d="M7.6,44"/><path d="M7.7,44.1"/><path d="M7.5,44.1"/><path d="M5.3,45.1" style="fill:#fcff2c"/><path d="M5.3,45.1"/><polygon points="5.3 45.1 5.4 45.1 5.4 45.3 5.3 45.3 5.3 45.1" style="fill:#fcff2c"/><path d="M5.4,45.3h0l-.1-.2h.1Zm0-.2h0l-.1.2h.1Z"/><path d="M5.4,45.1" style="fill:#fcff2c"/><path d="M5.6,45.2"/><polygon points="5.4 45.3 5.5 45.2 5.5 45.3 5.4 45.3" style="fill:#fcff2c"/><path d="M5.6,45.3H5.4v-.1Z"/><path d="M5.2,45.1" style="fill:#fcff2c"/><path d="M5.3,45.2"/><polygon points="5.2 45.2 5.3 45.2 5.3 45.3 5.2 45.3 5.2 45.2" style="fill:#fcff2c"/><path d="M5.3,45.3H5.2v-.1Z"/><path d="M5.3,45.5a.35.35,0,0,1,.1-.2s.1,0,.1.2Z" style="fill:#fcff2c"/><path d="M5.2,45.3v.2h.1a.35.35,0,0,1,.1-.2s.1,0,.1.2h.1v-.2Z" style="fill:#fcff2c"/><path d="M5.6,45.5h0l-.2-.2a.09.09,0,0,0-.1.1H5.2v-.2h.4Zm-.2-.2H5.2v.2h.1C5.3,45.4,5.3,45.4,5.4,45.3Zm0,0s.1,0,.1.2h.1v-.2Z"/><path d="M5.2,45.5" style="fill:#fcff2c"/><path d="M5.6,45.5"/><path d="M5.3,45.5c0-.1.1-.1,0,0,.1-.1.2-.1.2,0Z" style="fill:#fcff2c"/><path d="M5.4,45.5"/><path d="M5.2,45.3" style="fill:#fcff2c"/><path d="M5.6,45.3"/><path d="M5.2,45.3" style="fill:#fcff2c"/><path d="M5.6,45.4"/><path d="M5.4,45.2"/><path d="M5.5,45.2"/><path d="M5.2,45.2"/><path d="M7.5,46.3" style="fill:#fcff2c"/><path d="M7.5,46.3"/><polygon points="7.5 46.3 7.5 46.4 7.4 46.5 7.3 46.4 7.5 46.3" style="fill:#fcff2c"/><path d="M7.4,46.5h0v-.2l.1.1Z"/><path d="M7.5,46.4" style="fill:#fcff2c"/><path d="M7.5,46.4"/><polygon points="7.5 46.5 7.6 46.5 7.5 46.6 7.4 46.5 7.5 46.5" style="fill:#fcff2c"/><path d="M7.5,46.5"/><path d="M7.3,46.2" style="fill:#fcff2c"/><path d="M7.3,46.2"/><polygon points="7.3 46.4 7.3 46.3 7.4 46.4 7.3 46.4" style="fill:#fcff2c"/><path d="M7.3,46.3"/><path d="M7.1,46.6a.14.14,0,0,1,.2.2h0Z" style="fill:#fcff2c"/><path d="M7.2,46.4h0v.2a.13.13,0,0,1,.2,0h0v.2l.1.1.1-.1Z" style="fill:#fcff2c"/><path d="M7.4,46.8h0v-.3H7.3a.09.09,0,0,0-.1.1l-.1-.1.1-.1.3.3Zm-.1-.3h0v.2l.1.1.1-.1Zm-.1-.1h0v.2c0-.1.1-.1.2,0Z"/><path d="M7.1,46.5l.3.3h0Z" style="fill:#fcff2c"/><path d="M7.4,46.8h0L7,46.5H7ZM7,46.5l.3.3h0Z"/><path d="M7.2,46.6C7.3,46.5,7.3,46.6,7.2,46.6Z" style="fill:#fcff2c"/><path d="M7.3,46.6"/><path d="M7.2,46.3l.3.3h0Z" style="fill:#fcff2c"/><path d="M7.5,46.7h0l-.3-.3h0Zm-.3-.4h0l.3.3h0Z"/><path d="M7.2,46.4l.3.3h0Z" style="fill:#fcff2c"/><path d="M7.5,46.7h0l-.3-.3h0Zm-.3-.3h0l.3.3h0Z"/><path d="M7.5,46.4"/><path d="M7.5,46.5"/><path d="M7.3,46.3"/><path d="M7.6,45.1" style="fill:#fcff2c"/><path d="M7.6,45.1"/><polygon points="7.6 45.1 7.7 45.1 7.7 45.3 7.6 45.3 7.6 45.1" style="fill:#fcff2c"/><path d="M7.7,45.3h0l-.1-.2h.1Zm0-.2h0l-.1.2h.1Z"/><path d="M7.7,45.1" style="fill:#fcff2c"/><path d="M7.8,45.2"/><polygon points="7.7 45.2 7.8 45.2 7.8 45.3 7.7 45.3 7.7 45.2" style="fill:#fcff2c"/><path d="M7.8,45.3H7.7v-.1Z"/><path d="M7.4,45.1" style="fill:#fcff2c"/><path d="M7.4,45.1"/><polygon points="7.4 45.2 7.5 45.2 7.5 45.3 7.4 45.3 7.4 45.2" style="fill:#fcff2c"/><path d="M7.5,45.2"/><path d="M7.5,45.5a.35.35,0,0,1,.1-.2s.1,0,.1.2Z" style="fill:#fcff2c"/><path d="M7.4,45.3v.2h.1a.35.35,0,0,1,.1-.2s.1,0,.1.2h.1v-.2Z" style="fill:#fcff2c"/><path d="M7.8,45.5H7.7a.35.35,0,0,0-.1-.2.09.09,0,0,0-.1.1H7.4v-.2h.4Zm-.2-.1H7.4v.2h.1C7.5,45.4,7.6,45.4,7.6,45.4Zm0-.1a.35.35,0,0,1,.1.2h.1v-.2Z"/><path d="M7.4,45.5" style="fill:#fcff2c"/><path d="M7.8,45.5"/><path d="M7.6,45.5c0-.1.1-.1,0,0,.1-.1.2-.1.2,0Z" style="fill:#fcff2c"/><path d="M7.7,45.5h0C7.6,45.4,7.7,45.4,7.7,45.5Z"/><path d="M7.4,45.3" style="fill:#fcff2c"/><path d="M7.8,45.3"/><path d="M7.4,45.3" style="fill:#fcff2c"/><path d="M7.8,45.4"/><path d="M7.6,45.2"/><path d="M7.7,45.2"/><path d="M7.5,45.2"/><path d="M5.4,46.4" style="fill:#fcff2c"/><path d="M5.4,46.3"/><polygon points="5.5 46.4 5.5 46.3 5.7 46.4 5.6 46.5 5.5 46.4" style="fill:#fcff2c"/><path d="M5.5,46.3h0v.2l.1-.1Z"/><path d="M5.6,46.3" style="fill:#fcff2c"/><path d="M5.6,46.3"/><polygon points="5.7 46.4 5.6 46.4 5.7 46.3 5.7 46.4" style="fill:#fcff2c"/><path d="M5.7,46.3"/><path d="M5.4,46.5" style="fill:#fcff2c"/><path d="M5.4,46.5"/><polygon points="5.4 46.5 5.5 46.5 5.6 46.5 5.5 46.6 5.4 46.5" style="fill:#fcff2c"/><path d="M5.5,46.5"/><path d="M5.7,46.7a.13.13,0,0,1,0-.2h.2Z" style="fill:#fcff2c"/><path d="M5.5,46.6h.2a.13.13,0,0,1,0-.2h.2l.1-.1-.1-.1Z" style="fill:#fcff2c"/><path d="M5.6,46.8h0l.2-.4.1.1-.1.1H5.6C5.7,46.5,5.6,46.6,5.6,46.8Z"/><path d="M5.6,46.8l.3-.3h0Z" style="fill:#fcff2c"/><path d="M5.6,46.8h0l.3-.3h0Zm.3-.3-.3.3h0Z"/><path d="M5.7,46.7c-.1-.1,0-.1,0,0C5.7,46.6,5.8,46.5,5.7,46.7Z" style="fill:#fcff2c"/><path d="M5.7,46.7h0C5.6,46.6,5.7,46.6,5.7,46.7Z"/><path d="M5.5,46.6l.3-.3h0Z" style="fill:#fcff2c"/><path d="M5.5,46.6h0l.3-.3h0Zm0,0h0l.3-.3h0Z"/><path d="M5.5,46.6l.3-.3h0Z" style="fill:#fcff2c"/><path d="M5.5,46.7h0l.3-.3h0Zm0,0h0l.3-.3h0Z"/><path d="M5.5,46.4"/><path d="M5.7,46.3"/><path d="M5.5,46.5"/><rect y="50" width="6" height="10" style="fill:#3d9348"/><rect x="6" y="50" width="6" height="10" style="fill:#f4f4f4"/><rect x="12" y="50" width="6" height="10" style="fill:#d80031"/><g style="clip-path:url(#d)"><rect y="60" width="6" height="10" style="fill:#1c2a7d"/></g><g style="clip-path:url(#d)"><rect x="6" y="60" width="6" height="10" style="fill:#f3d02f"/></g><g style="clip-path:url(#d)"><rect x="12" y="60" width="6" height="10" style="fill:#bc0030"/></g><g style="clip-path:url(#g)"><rect y="70" width="18" height="5" style="fill:#fff"/></g><g style="clip-path:url(#g)"><rect y="75" width="18" height="5" style="fill:#d80031"/></g><g style="clip-path:url(#i)"><rect y="80" width="18" height="10" style="fill:#314588"/></g><g style="clip-path:url(#i)"><rect y="80" width="18" height="6.7" style="fill:#fff"/></g><g style="clip-path:url(#i)"><rect y="80" width="18" height="3.3" style="fill:#9f1330"/></g><g style="clip-path:url(#l)"><rect y="90" width="18" height="10" style="fill:#2d5a95"/></g><g style="clip-path:url(#l)"><rect x="5.2" y="90" width="2.1" height="10" style="fill:#f3d02f"/></g><g style="clip-path:url(#l)"><rect y="94" width="18" height="2" style="fill:#f3d02f"/></g><g style="clip-path:url(#o)"><rect y="100" width="18" height="10" style="fill:#be003a"/></g><g style="clip-path:url(#o)"><rect x="5.8" y="100" width="1.9" height="10" style="fill:#fff"/></g><g style="clip-path:url(#o)"><rect y="104.1" width="18" height="1.9" style="fill:#fff"/></g><g style="clip-path:url(#r)"><rect y="110" width="18" height="3.3" style="fill:#f4f4f4"/></g><g style="clip-path:url(#r)"><rect y="113.3" width="18" height="3.3" style="fill:#323e95"/></g><rect y="116.6" width="18" height="3.4" style="fill:#d8001e"/><g style="clip-path:url(#t)"><rect y="128.9" width="18" height="1.1" style="fill:#16007e"/></g><g style="clip-path:url(#t)"><rect y="127.8" width="18" height="1.1" style="fill:#fff"/></g><g style="clip-path:url(#t)"><rect y="126.7" width="18" height="1.1" style="fill:#16007e"/></g><g style="clip-path:url(#t)"><rect y="125.6" width="18" height="1.1" style="fill:#fff"/></g><g style="clip-path:url(#t)"><rect y="124.4" width="18" height="1.1" style="fill:#16007e"/></g><g style="clip-path:url(#t)"><rect y="123.3" width="18" height="1.1" style="fill:#fff"/></g><g style="clip-path:url(#t)"><rect y="122.2" width="18" height="1.1" style="fill:#16007e"/></g><g style="clip-path:url(#t)"><rect y="121.1" width="18" height="1.1" style="fill:#fff"/></g><g style="clip-path:url(#t)"><rect y="120" width="18" height="1.1" style="fill:#16007e"/></g><g style="clip-path:url(#t)"><rect y="120" width="5.8" height="5.6" style="fill:#16007e"/></g><g style="clip-path:url(#t)"><rect y="122.2" width="5.8" height="1.1" style="fill:#fff"/></g><g style="clip-path:url(#t)"><rect x="2.3" y="120" width="1.2" height="5.6" style="fill:#fff"/></g><g style="clip-path:url(#af)"><rect y="130" width="18" height="10" style="fill:#cb1d23"/></g><g style="clip-path:url(#af)"><polygon points="2.1 132.6 1.2 132 2.3 132 2.6 131 3 132 4.1 132 3.2 132.6 3.5 133.6 2.6 133 1.7 133.6 2.1 132.6" style="fill:#f7de29"/></g><g style="clip-path:url(#af)"><polygon points="5.2 134.3 5.4 134 5.4 134.4 5.8 134.5 5.4 134.6 5.4 135 5.1 134.7 4.8 134.8 5 134.5 4.8 134.2 5.2 134.3" style="fill:#f7de29"/></g><g style="clip-path:url(#af)"><polygon points="6.4 132.2 6.2 132.5 6.2 132.1 5.8 132.1 6.1 131.9 6.1 131.5 6.4 131.8 6.7 131.6 6.5 132 6.8 132.2 6.4 132.2" style="fill:#f7de29"/></g><g style="clip-path:url(#af)"><polygon points="6.1 133.6 5.8 133.4 6.2 133.4 6.3 133 6.4 133.4 6.8 133.4 6.5 133.6 6.6 133.9 6.3 133.7 6 133.9 6.1 133.6" style="fill:#f7de29"/></g><g style="clip-path:url(#af)"><polygon points="5.2 130.8 5.5 130.5 5.4 130.9 5.8 131.1 5.4 131.1 5.3 131.5 5.1 131.2 4.7 131.2 5 131 4.8 130.6 5.2 130.8" style="fill:#f7de29"/></g><rect y="140" width="18" height="10" style="fill:#fff"/><rect y="146.7" width="18" height="3.3" style="fill:#ea0020"/><rect y="143.3" width="18" height="3.4" style="fill:#3555e2"/><path d="M3.51,142.1a.09.09,0,0,0-.1.1h0l.2,2.3a2.09,2.09,0,0,0,.8,1.6,2.48,2.48,0,0,0,1.1.6h0a2.55,2.55,0,0,0,1.9-2.2l.2-2.3a.09.09,0,0,1-.1-.1h0l-.2,2.3a2.6,2.6,0,0,1-.7,1.6,2.11,2.11,0,0,1-1,.6h0a2.11,2.11,0,0,1-1-.6,2.35,2.35,0,0,1-.7-1.6l-.4-2.3h0" style="fill:#ea0020"/><path d="M7.51,142.1a5.11,5.11,0,0,0-2.11-.4,4,4,0,0,0-1.9.4l.2,2.3a2.6,2.6,0,0,0,.7,1.6,2.11,2.11,0,0,0,1,.6h0a2.11,2.11,0,0,0,1-.6,2.61,2.61,0,0,0,.91-1.6" style="fill:#3555e2"/><polyline points="5.5 142.8 5.6 142.7 5.5 142.7 5.4 142.6 5.3 142.7 5.2 142.7 5.3 142.8 5.2 142.9 5.3 142.9 5.4 143 5.5 142.9 5.6 142.9" style="fill:#f8e72a"/><polyline points="5 142.1 5.1 142 4.9 142 4.9 141.9 4.8 142 4.7 142 4.7 142.1 4.7 142.2 4.8 142.2 4.9 142.3 4.9 142.2 5.1 142.2" style="fill:#f8e72a"/><polyline points="6.1 142.1 6.1 142 6 142 5.9 141.9 5.9 142 5.7 142 5.8 142.1 5.7 142.2 5.9 142.2 5.9 142.3 6 142.2 6.1 142.2" style="fill:#f8e72a"/><path d="M6.9,144.8l-.8-1-.3.4-.5-.9-.5.9-.3-.4-.8,1c0,.1.1.3.2.3s.2.1.4.1a.37.37,0,0,0,.3-.1h.5c.1,0,.2.1.3.1h0a.37.37,0,0,0,.3-.1.3.3,0,0,1,.4,0h.1c.1,0,.2.1.3.1s.3-.1.4-.1v-.3" style="fill:#fff"/><path d="M4,145.3c0,.1.1.1.1.2h0c.1,0,.2.1.3,0h.1c.1,0,.2-.1.3-.1h0a.37.37,0,0,1,.3.1.3.3,0,0,0,.4,0h.1c.1,0,.2-.1.3-.1h0a.37.37,0,0,1,.3.1.3.3,0,0,0,.4,0h.1c0-.1.1-.1.1-.2H6.2c-.1,0-.2-.1-.3-.1h0a.37.37,0,0,0-.3.1H5.1c-.1,0-.2-.1-.3-.1h0a.37.37,0,0,0-.3.1H4.4c0,.1-.2.1-.4,0H4" style="fill:#fff"/><path d="M6.5,145.7l-.2.2a4.4,4.4,0,0,1-.9.5h0a2.74,2.74,0,0,1-.9-.5l-.2-.2h.3c.1,0,.2-.1.3-.1h0a.37.37,0,0,1,.3.1.3.3,0,0,0,.4,0h.1c.1,0,.2-.1.3-.1H6a.37.37,0,0,1,.3.1h.2" style="fill:#fff"/><rect y="150" width="18" height="10" style="fill:#fff"/><path d="M9,152a3,3,0,1,1-3,3,3,3,0,0,1,3-3" style="fill:#ad0018"/><rect y="160" width="18" height="10" style="fill:#e30a17"/><circle cx="5.88" cy="165" r="2.5" style="fill:#fff"/><circle cx="6.5" cy="165" r="2" style="fill:#e30a17"/><polygon points="7.85 165 10.12 165.74 8.72 163.81 8.72 166.19 10.12 164.26 7.85 165" style="fill:#fff"/><rect y="170" width="18" height="10" style="fill:#006c35"/><path d="M8.05,172.5H8a.26.26,0,0,0-.11.18c0,.05,0,.05,0,.08s0,0,.09,0a.13.13,0,0,0,0-.06c0-.05-.05,0-.06,0s0-.08.07-.13,0-.05,0-.05Zm.65,0a.16.16,0,0,0,0,.06.25.25,0,0,0,0,.23.73.73,0,0,1,0,.35l-.07.1a.12.12,0,0,1-.15,0,.19.19,0,0,1-.08-.13,1.47,1.47,0,0,0,0-.39.06.06,0,0,0-.11,0,.92.92,0,0,0-.22.44c0,.11-.07.08-.09,0s-.07-.5-.14-.42c-.11.33.07.7.2.66s.15-.14.18-.33.05-.06.06,0c0,.25,0,.31.09.39a.2.2,0,0,0,.27,0l.11-.11a.08.08,0,0,1,.1,0s0,.09.1.13.2,0,.23-.05a.75.75,0,0,1,.07-.12s.08,0,.08,0,0,0,0,.08,0,0,.06,0,.13-.19.13-.19,0-.06,0,0l-.06,0s-.11,0-.14,0a.79.79,0,0,1-.06-.22s-.05-.1,0-.11.07,0,.08,0-.05-.15-.1-.2a.1.1,0,0,0-.16,0s0,.08,0,.12a.17.17,0,0,0,0,.16.47.47,0,0,1,.08.33.12.12,0,0,1-.11.06s-.08,0-.11-.22a1.63,1.63,0,0,0-.06-.47s0-.07-.05-.07Zm-.2,0s-.05,0-.06.07a.54.54,0,0,0,0,.2c0,.06.05.08.08,0a.48.48,0,0,0,0-.22s0-.06,0-.06Zm.76,0a.08.08,0,0,0,0,.05.81.81,0,0,0,0,.16s.07.1.09.14.26.36.38.54,0,.27.05.4a7.85,7.85,0,0,1,0,1c.06,0,.15-.09.18-.22s0-.56,0-.67a.81.81,0,0,0,0-.15c.14.23.28.47.42.74,0,0,0-.3,0-.34-.11-.23-.26-.46-.31-.55l-.14-.22c0-.15,0-.27,0-.31s.06,0,.05-.07a1,1,0,0,0-.21-.41s0-.05-.09,0a.3.3,0,0,0,0,.18l-.05-.07-.16-.14s-.07,0-.1,0Zm2.25,0s0,0,0,0a.11.11,0,0,0-.05.1l0,.25v0l0,0c-.16-.17.07,0,0-.16a1.13,1.13,0,0,0-.19-.19s-.06-.07-.07,0a1.55,1.55,0,0,0,0,.21.28.28,0,0,0,.07.13l.32.42c0,.29,0,.56.05.86,0,.13,0,.3-.08.31a.07.07,0,0,1-.09,0,1,1,0,0,1-.14-.18c0-.06-.09,0-.13,0a1.85,1.85,0,0,0-.24.44s-.07.06-.13,0a.64.64,0,0,1-.08-.43.47.47,0,0,0,0,.46c0,.09.08.15.17.19a.12.12,0,0,0,.18,0c.08-.08.08-.29.12-.34a.07.07,0,0,1,.12,0,.23.23,0,0,0,.12.1.18.18,0,0,0,.25,0,.27.27,0,0,0,.13-.16,6.4,6.4,0,0,0,0-.93l.16.24a4.93,4.93,0,0,1,0,.76s.17-.14.17-.23v-.23c.09.14.17.28.25.42a.56.56,0,0,0,0-.34c-.08-.14-.19-.28-.27-.4s0-.31-.05-.37,0-.2,0-.3a.52.52,0,0,1,0-.17s0,0,.06,0a1,1,0,0,0-.15-.42s-.06,0-.11,0,0,.14,0,.23.08.47.11.7l-.2-.29v0s0-.19,0-.23,0,0,0,0l0,0s0,0,0-.06l-.19-.35Zm-5.82,0s-.07,0-.05.06.06.1.08.15,0,.12,0,.13,0-.07.07-.14,0-.17-.09-.2Zm6.63,0s0,0,0,.05a.4.4,0,0,0,0,.25,12.57,12.57,0,0,1,.16,1.65.35.35,0,0,1,0,.13.77.77,0,0,1-.16.19c-.05,0-.16.07-.2.1s-.11.15,0,.15a.57.57,0,0,0,.48-.23.7.7,0,0,0,.08-.3,7,7,0,0,0-.09-1.45.82.82,0,0,1,0-.14s.06,0,.08,0-.14-.24-.19-.33,0,0,0,0Zm-1.69,0,0,0a.82.82,0,0,0,0,.36,7.44,7.44,0,0,1,.22,1.72c.05,0,.12-.13.14-.25a2.17,2.17,0,0,0,0-.38c0-.1-.11-.91-.14-1s.11,0,.1-.1-.17-.26-.2-.35,0-.05,0-.05Zm-4.1,0a.08.08,0,0,0,0,0s0,0,0,0,0,0,0,0l0,0h0s0,0,0,0,0,0,0,0h0s0,0,0,0v0h0s0,0,0,.07,0,.09.06.11.22,0,.22-.1,0,0,0-.06,0,0,0,0Zm1,0-.07,0a.14.14,0,0,0,0,.18s.08.06.06.09-.41.32-.42.35h0a.81.81,0,0,0,.22,0h0a3,3,0,0,0,.36-.37l0,0s0,0,0-.05,0-.13,0-.18l-.09,0Zm2.75,0,0,0a.49.49,0,0,0-.05.25c.07.53.1,1,.15,1.53a.27.27,0,0,1,0,.16,1.64,1.64,0,0,1-.51.37s.05.12.15.12a.57.57,0,0,0,.43-.34.58.58,0,0,0,.1-.27,5.46,5.46,0,0,0-.11-1.35.2.2,0,0,1,0-.09s0,0,.06,0-.07-.27-.13-.35,0,0,0,0Zm-4.26,0a.06.06,0,0,0-.06.05,2.09,2.09,0,0,0,0,.25,2.38,2.38,0,0,1,.07.4c0,.18-.11.08-.11,0a.86.86,0,0,0,0-.36s0-.06-.08,0-.13.1-.16.27a1.55,1.55,0,0,0,0,.16c0,.08-.07.15-.11,0s-.06-.41-.11-.34c0,.22,0,.62.15.66s.1-.39.19-.46,0,0,0,0v.35a.17.17,0,0,0,.13.17c.06,0,.1,0,.13.06l0,.6s.13,0,.14-.34a3.84,3.84,0,0,1,0-.45s0,0,.09,0,.09.09.18.07.23-.11.23-.22a.92.92,0,0,0-.07-.31s0-.07,0-.08.07,0,.08,0a.34.34,0,0,0-.13-.19c-.05,0-.12,0-.15.05a.51.51,0,0,0,.12.34.43.43,0,0,1,0,.17.1.1,0,0,1-.12,0s-.11-.08-.11-.1a.49.49,0,0,0,0-.27c0-.07,0-.09-.08-.14a0,0,0,0,0-.08,0,.47.47,0,0,0,0,.35c0,.08.06.13,0,.13s0,0-.08,0a1.4,1.4,0,0,1,0-.33c0-.08,0-.27-.07-.31l0,0Zm.8,0h0a.12.12,0,0,0-.08.14c.06.35.1.62.16,1,0,0,0,.1-.07.09s-.1-.15-.23-.15a.24.24,0,0,0-.21.2.59.59,0,0,0,0,.23.18.18,0,0,0,.21,0c.06,0,.11-.08.13-.06h0s0,.2-.27.34-.29.09-.36,0,0-.4-.1-.33c-.32.81.73.93.85,0,0,0,0-.05,0-.05s0,0,0,0c0,.81-.81.87-.94.61a.59.59,0,0,1-.05-.27.22.22,0,0,0,0-.09s-.08,0-.09.15a1.34,1.34,0,0,0,0,.2c0,.63,1.06.36,1.23-.17a1.81,1.81,0,0,0,0-.5h0c.1.11.24,0,.27,0s0,0,.07,0a.17.17,0,0,0,.25-.07c0-.1,0-.2,0-.3a.23.23,0,0,0-.11,0h0v.09h0a0,0,0,0,1,0,0c0-.11-.13-.12-.19.05s-.11,0-.12,0,0-.13-.13-.08L7,173s.07,0,.11,0-.12-.36-.17-.38h0Zm3.14,0a.06.06,0,0,0-.07.07s.09.12.1.17,0,.15,0,.17.07-.09.08-.17a.25.25,0,0,0-.1-.24Zm-2.44.08a.09.09,0,0,1,0,0s0,.05,0,.05,0,0,0,0,0-.05,0-.06Zm4.53.12s-.08,0-.06.08.08.13.09.19,0,.16,0,.17.06-.08.07-.18,0-.23-.09-.26Zm-2.51.06a.09.09,0,0,1,0,0,.29.29,0,0,1,0,.09l-.06-.08c-.07-.08,0-.05,0-.06Zm.58.28s0,0,0,0,0,0,0,0a0,0,0,0,1,0,0,0,0,0,0,0,0,0h0v0s0,0,0,0h0s0,0,0,0,0,0,0,0h0s0,.05,0,.07,0,.09.05.11.23,0,.22-.1v-.06a.05.05,0,0,0,0,0Zm-2.64,0h0a.17.17,0,0,0-.06.22.12.12,0,0,0,.12,0c.06,0,.1-.12.1-.12s0,0-.07,0,0,0,0,0a.12.12,0,0,1,0-.1s0,0,0,0Zm3.73,0a.09.09,0,0,0-.09.07s0,0,0,.08,0,0-.06,0,0-.05,0-.05a.09.09,0,0,0-.1,0,.12.12,0,0,0,0,.12.51.51,0,0,0,.27.22c0-.07,0-.17,0-.23a.06.06,0,0,1,0-.06s.06,0,.06,0a.24.24,0,0,0,0-.15.07.07,0,0,0-.06,0Zm-3.08.26h0l0,0a.17.17,0,0,0,0,.15s.06.18.11.3a1,1,0,0,1,0,.41,1.05,1.05,0,0,1-.42.44.19.19,0,0,1-.17,0h0a.12.12,0,0,1,0-.1h0a1,1,0,0,0,.42-.43.43.43,0,0,0,0-.32A.27.27,0,0,0,8,173.8H8s.09,0,.09,0a.46.46,0,0,0-.11-.22.11.11,0,0,0-.15,0s-.06.13,0,.22.1.08.15.21h0s0,.1,0,.13-.29.28-.31.3h0s0,0,0,0,0-.14,0-.15h0c-.09.06-.12.23-.14.29a4.43,4.43,0,0,0-.64.43c-.08.12.54-.14.61-.17h0s0,.07.06.12a.32.32,0,0,0,.33.1,1.09,1.09,0,0,0,.48-.39s0,0,.07,0a.77.77,0,0,0,.68.36c.08-.1,0-.14,0-.16s-.16-.07-.19-.13,0-.11.1-.15a2.8,2.8,0,0,0,.63-.12.65.65,0,0,1,.06-.21s0,0,0,0h0l0,0H9c.17,0,.46-.07.48-.35a.26.26,0,0,0-.24-.27.24.24,0,0,0-.21.28s0,.11,0,.12c-.25,0-.52.18-.53.29h0s0,0,0-.07a1.34,1.34,0,0,0-.17-.58s-.05,0-.06,0Zm.65.1a0,0,0,0,0,0,0s0,0,0,0,0,0,0,0,0,0,0,0h0l0,0v0l0,0h0a0,0,0,0,1,0,0v0h0s-.05.05,0,.07a.11.11,0,0,0,.05.12c.08,0,.26,0,.22-.11v-.06a0,0,0,0,0,0,0Zm2.63.11h0l-.38.26s0,.15,0,.14a1.36,1.36,0,0,0,.39-.27s0-.13,0-.13Zm-2.29,0,.06,0a.08.08,0,0,1,0,.06h0s0,0-.07,0a.06.06,0,0,1,0-.06h0s0,0,0,0ZM6,173.77a.62.62,0,0,0-.47.38l.6-.28c0-.05,0-.1-.13-.1Zm.62.09a0,0,0,0,1,0,0,.06.06,0,0,1,0,.06h0a0,0,0,0,1,0,0s0,0,0-.05h0Zm4.79.07s-.06,0-.05.09.05.13.06.19,0,.15,0,.16.09-.07.09-.17,0-.24-.08-.27Zm-4.07.18s-.06,0-.05.06.09.07.09.14,0,.12,0,.13.06-.06.07-.13,0-.17-.09-.19Zm1.22.17h0a2,2,0,0,0,.28,0c.08,0,.12.07,0,.1s-.14,0-.14.15,0,.08,0,.09h0l-.06,0a.35.35,0,0,1-.19-.28s0-.07.07-.07Zm-3,.13,0,0a.62.62,0,0,0-.06.53.17.17,0,0,0,.13,0c.07,0,.1-.18.08-.23s0,0-.06,0-.07,0-.08,0a2.33,2.33,0,0,1,0-.29v-.05Zm3.82.23h0a.35.35,0,0,0-.11.09s0,0,0,0,0,0,.06,0,0,0,0,.05a.08.08,0,0,0,0,.07.06.06,0,0,0,.07,0,.87.87,0,0,1,.23-.08s0-.08,0-.08a.28.28,0,0,0-.17.05s0,0-.05,0,0-.08,0-.12l0,0Zm2.45.1h-.05s0,0,0,0,0,0,.06.06a.06.06,0,0,1,0,.07l-.07.06s0,.05,0,.06S12,175,12,175a.06.06,0,0,0,0-.06h-.08s0,0,0,0a.11.11,0,0,0,0-.06s0,0,0,0Zm-1,2.07h0a.1.1,0,0,0,0,.19l-3.42,0-.93,0a.71.71,0,0,0,.65.27h3.69a.25.25,0,0,0,0,.26h0a.06.06,0,0,0,.08,0h.54s.05.08.1.07.16,0,.16-.21c0,0,0-.3-.21-.28l-.18,0a3,3,0,0,0-.43,0s0-.11,0-.14h-.05s0,0,0-.05Zm.08.43h.51a.05.05,0,0,1,0,.08h-.16s-.11,0-.13,0h-.23s0-.08,0-.09Z" style="fill:#fff"/><rect y="185" width="18" height="5" style="fill:#fff"/><rect y="180" width="18" height="5" style="fill:red"/><rect y="190" width="18" height="10" style="fill:#da251d"/><polygon points="9 192.5 7.37 197.5 11.63 194.41 6.37 194.41 10.63 197.5 9 192.5" style="fill:#ff0"/><rect y="200" width="18" height="10" style="fill:#009b3a"/><path d="M2.74,205,9,209l6.26-4L9,201Z" style="fill:#fedf00"/><circle cx="9" cy="205" r="2.64" style="fill:#002776"/><g style="clip-path:url(#al)"><path d="M1.08,210.28a6.42,6.42,0,0,1,12.83,0h-.38a6,6,0,0,0-12.08,0Z" style="fill:#fff"/></g><path d="M6.84,204.09a.11.11,0,0,0-.12-.11.12.12,0,0,0-.1.14.12.12,0,0,0,.13.11A.12.12,0,0,0,6.84,204.09ZM6.73,204a.08.08,0,0,1,0,.15C6.65,204.18,6.65,204,6.73,204Z" style="fill:#009b3a"/><path d="M7.59,204.18h.23v-.05H7.64v-.07h.14V204H7.64V204h.17v0H7.6Z" style="fill:#009b3a"/><path d="M7.91,204.2H8L8,204l0,.17H8l.07-.17,0,.17h.05l0-.26H8.09l-.06.17L8,204H7.93Z" style="fill:#009b3a"/><path d="M8.43,204.25l.19,0v0l-.14,0v-.06l.12,0v0l-.11,0v0l.14,0v-.05l-.18,0Z" style="fill:#009b3a"/><path d="M9.48,204.33m-.26.1" style="fill:#009b3a"/><rect x="10.01" y="204.57" width="0.04" height="0.1" transform="translate(-181.62 132.24) rotate(-66.51)" style="fill:#009b3a"/><rect x="9.97" y="204.65" width="0.13" height="0.04" transform="matrix(0.4, -0.92, 0.92, 0.4, -181.66, 132.27)" style="fill:#009b3a"/><path d="M10.4,204.92l.19.11,0,0-.16-.09,0-.06.12.07,0,0-.12-.08,0,0,.15.09,0,0-.19-.1Z" style="fill:#009b3a"/><path d="M10.76,205a0,0,0,0,0,0,.06s.05,0,.06,0-.13-.11-.08-.18.12,0,.14,0a.09.09,0,0,1,0,.12l0,0s0-.05,0-.06,0,0-.06,0,.13.1.09.17-.1,0-.14,0-.09-.08,0-.13Z" style="fill:#009b3a"/><path d="M11,205.22s0,0,0,.06,0,0,.06,0-.13-.11-.07-.18.11,0,.14,0,.07.06,0,.11l-.05,0s0,0,0-.06,0,0-.05,0,.12.11.07.18-.1,0-.14,0-.08-.08,0-.13Z" style="fill:#009b3a"/><path d="M6.84,204.41l0,.11.05,0" style="fill:#fff"/><path d="M6.84,204.41l0,.11-.06,0" style="fill:#fff"/><path d="M7,204.49H6.84v.06" style="fill:#fff"/><path d="M7,204.49l-.09.07,0-.05" style="fill:#fff"/><path d="M6.74,204.49l.09.07,0-.05" style="fill:#fff"/><path d="M6.74,204.49h.11v.06" style="fill:#fff"/><path d="M6.91,204.62l0-.11-.06,0" style="fill:#fff"/><path d="M6.91,204.62l-.09-.07,0-.05" style="fill:#fff"/><path d="M6.78,204.62l.09-.07,0-.05" style="fill:#fff"/><path d="M6.78,204.62l0-.11.06,0" style="fill:#fff"/><path d="M7.08,205.52l0,.11.06,0" style="fill:#fff"/><path d="M7.08,205.52l0,.11-.05,0" style="fill:#fff"/><path d="M7.18,205.6H7.07v.06" style="fill:#fff"/><path d="M7.18,205.6l-.09.07,0,0" style="fill:#fff"/><path d="M7,205.6l.09.07,0,0" style="fill:#fff"/><path d="M7,205.6h.11v.06" style="fill:#fff"/><path d="M7.14,205.73l0-.11-.06,0" style="fill:#fff"/><path d="M7.14,205.73l-.09-.07,0,0" style="fill:#fff"/><path d="M7,205.73l.09-.07,0,0" style="fill:#fff"/><path d="M7,205.73l0-.11,0,0" style="fill:#fff"/><path d="M6.75,205.78l0,.09h0" style="fill:#fff"/><path d="M6.75,205.78l0,.09h0" style="fill:#fff"/><path d="M6.84,205.84H6.75v0" style="fill:#fff"/><path d="M6.84,205.84l-.07.06,0,0" style="fill:#fff"/><path d="M6.66,205.84l.08.06,0,0" style="fill:#fff"/><path d="M6.66,205.84h.1v0" style="fill:#fff"/><path d="M6.81,206l0-.09h0" style="fill:#fff"/><path d="M6.81,206l-.08-.06,0,0" style="fill:#fff"/><path d="M6.7,206l.07-.06,0,0" style="fill:#fff"/><path d="M6.7,206l0-.09h0" style="fill:#fff"/><path d="M9,206.08l0,.11,0,0" style="fill:#fff"/><path d="M9,206.08l0,.11,0,0" style="fill:#fff"/><path d="M8.89,206.16l.09.07,0,0" style="fill:#fff"/><path d="M8.89,206.16H9v.06" style="fill:#fff"/><path d="M9.11,206.16H9v.06" style="fill:#fff"/><path d="M9.11,206.16l-.09.07,0,0" style="fill:#fff"/><path d="M9.07,206.29l0-.11,0,0" style="fill:#fff"/><path d="M9.07,206.29l-.1-.07,0,0" style="fill:#fff"/><path d="M8.93,206.29l.1-.07,0,0" style="fill:#fff"/><path d="M8.93,206.29l0-.11,0,0" style="fill:#fff"/><path d="M7.94,206.27l0,.11,0,0" style="fill:#fff"/><path d="M7.94,206.27l0,.11-.06,0" style="fill:#fff"/><path d="M7.83,206.35l.1.07,0,0" style="fill:#fff"/><path d="M7.83,206.35H8v.06" style="fill:#fff"/><path d="M8.05,206.35H7.94v.06" style="fill:#fff"/><path d="M8.05,206.35l-.09.07,0,0" style="fill:#fff"/><path d="M8,206.48l0-.11,0,0" style="fill:#fff"/><path d="M8,206.48l-.09-.07,0,0" style="fill:#fff"/><path d="M7.88,206.48l.09-.07,0,0" style="fill:#fff"/><path d="M7.88,206.48l0-.11,0,0" style="fill:#fff"/><path d="M10.85,205.81l0,.11,0,0" style="fill:#fff"/><path d="M10.85,205.81l0,.11-.06,0" style="fill:#fff"/><path d="M10.74,205.89l.09.07,0-.05" style="fill:#fff"/><path d="M10.74,205.89h.12V206" style="fill:#fff"/><path d="M11,205.89h-.12V206" style="fill:#fff"/><path d="M11,205.89l-.09.07,0-.05" style="fill:#fff"/><path d="M10.92,206l0-.11-.05,0" style="fill:#fff"/><path d="M10.92,206l-.09-.07,0,0" style="fill:#fff"/><path d="M10.78,206l.1-.07,0,0" style="fill:#fff"/><path d="M10.78,206l0-.11,0,0" style="fill:#fff"/><path d="M9.79,206.68l0,.09.05,0" style="fill:#fff"/><path d="M9.79,206.68l0,.09-.05,0" style="fill:#fff"/><path d="M9.7,206.75l.08.05,0,0" style="fill:#fff"/><path d="M9.7,206.75h.09v.05" style="fill:#fff"/><path d="M9.88,206.75h-.1v.05" style="fill:#fff"/><path d="M9.88,206.75l-.08.05,0,0" style="fill:#fff"/><path d="M9.85,206.85l0-.09-.05,0" style="fill:#fff"/><path d="M9.85,206.85l-.08,0,0,0" style="fill:#fff"/><path d="M9.73,206.85l.08,0,0,0" style="fill:#fff"/><path d="M9.73,206.85l0-.09.05,0" style="fill:#fff"/><path d="M10.32,206.61l0,.1h0" style="fill:#fff"/><path d="M10.32,206.61l0,.1h0" style="fill:#fff"/><path d="M10.23,206.68l.08.06,0,0" style="fill:#fff"/><path d="M10.23,206.68h.09v0" style="fill:#fff"/><path d="M10.41,206.68h-.1v0" style="fill:#fff"/><path d="M10.41,206.68l-.08.06,0,0" style="fill:#fff"/><path d="M10.37,206.79l0-.09h0" style="fill:#fff"/><path d="M10.37,206.79l-.07-.06,0,0" style="fill:#fff"/><path d="M10.26,206.79l.08-.06,0,0" style="fill:#fff"/><path d="M10.26,206.79l0-.09h.05" style="fill:#fff"/><path d="M10.8,206.28l0,.09h.05" style="fill:#fff"/><path d="M10.8,206.28l0,.09h-.05" style="fill:#fff"/><path d="M10.71,206.34l.08.06,0,0" style="fill:#fff"/><path d="M10.71,206.34h.09v0" style="fill:#fff"/><path d="M10.89,206.34h-.1v0" style="fill:#fff"/><path d="M10.89,206.34l-.08.06,0,0" style="fill:#fff"/><path d="M10.86,206.45l0-.09h-.05" style="fill:#fff"/><path d="M10.86,206.45l-.08-.06,0,0" style="fill:#fff"/><path d="M10.74,206.45l.08-.06,0,0" style="fill:#fff"/><path d="M10.74,206.45l0-.09h.05" style="fill:#fff"/><path d="M11,206.07l0,.09h0" style="fill:#fff"/><path d="M11,206.07l0,.09h-.05" style="fill:#fff"/><path d="M10.87,206.14l.07.05,0,0" style="fill:#fff"/><path d="M10.87,206.14H11v0" style="fill:#fff"/><path d="M11.05,206.14H11v0" style="fill:#fff"/><path d="M11.05,206.14l-.08.05,0,0" style="fill:#fff"/><path d="M11,206.24l0-.09,0,0" style="fill:#fff"/><path d="M11,206.24l-.07-.05,0,0" style="fill:#fff"/><path d="M10.9,206.24l.08-.05,0,0" style="fill:#fff"/><path d="M10.9,206.24l0-.09.05,0" style="fill:#fff"/><path d="M9.31,205.57l0,.09h0" style="fill:#fff"/><path d="M9.31,205.57l0,.09h0" style="fill:#fff"/><path d="M9.21,205.64l.08.05,0,0" style="fill:#fff"/><path d="M9.21,205.64h.1v0" style="fill:#fff"/><path d="M9.4,205.64H9.3v0" style="fill:#fff"/><path d="M9.4,205.64l-.08.05,0,0" style="fill:#fff"/><path d="M9.36,205.74l0-.09,0,0" style="fill:#fff"/><path d="M9.36,205.74l-.08-.05,0,0" style="fill:#fff"/><path d="M9.25,205.74l.08-.05,0,0" style="fill:#fff"/><path d="M9.25,205.74l0-.09,0,0" style="fill:#fff"/><path d="M9,205.34l0,.09H9" style="fill:#fff"/><path d="M9,205.34l0,.09H9" style="fill:#fff"/><path d="M8.91,205.4l.08.06,0,0" style="fill:#fff"/><path d="M8.91,205.4H9v0" style="fill:#fff"/><path d="M9.09,205.4H9v0" style="fill:#fff"/><path d="M9.09,205.4l-.08.06,0,0" style="fill:#fff"/><path d="M9.06,205.51l0-.09H9" style="fill:#fff"/><path d="M9.06,205.51,9,205.45l0,0" style="fill:#fff"/><path d="M8.94,205.51l.08-.06,0,0" style="fill:#fff"/><path d="M8.94,205.51l0-.09H9" style="fill:#fff"/><path d="M9.83,204.08l0,.09,0,0" style="fill:#fff"/><path d="M9.83,204.08l0,.09,0,0" style="fill:#fff"/><path d="M9.74,204.15l.07,0,0,0" style="fill:#fff"/><path d="M9.74,204.15h.09v0" style="fill:#fff"/><path d="M9.92,204.15h-.1v0" style="fill:#fff"/><path d="M9.92,204.15l-.08,0,0,0" style="fill:#fff"/><path d="M9.88,204.25l0-.09,0,0" style="fill:#fff"/><path d="M9.88,204.25l-.07-.05,0,0" style="fill:#fff"/><path d="M9.77,204.25l.08-.05,0,0" style="fill:#fff"/><path d="M9.77,204.25l0-.09,0,0" style="fill:#fff"/><path d="M8,205l0,.09,0,0" style="fill:#fff"/><path d="M8,205l0,.09,0,0" style="fill:#fff"/><path d="M7.91,205.08l.07,0,0,0" style="fill:#fff"/><path d="M7.91,205.08H8v0" style="fill:#fff"/><path d="M8.08,205.08H8v0" style="fill:#fff"/><path d="M8.08,205.08l-.07,0,0,0" style="fill:#fff"/><path d="M8.05,205.18l0-.09,0,0" style="fill:#fff"/><path d="M8.05,205.18,8,205.13l0,0" style="fill:#fff"/><path d="M7.94,205.18l.08-.05,0,0" style="fill:#fff"/><path d="M7.94,205.18l0-.09,0,0" style="fill:#fff"/><path d="M11.22,205.88l0,.07h0" style="fill:#fff"/><path d="M11.22,205.88l0,.07h0" style="fill:#fff"/><path d="M11.15,205.93l.06,0,0,0" style="fill:#fff"/><path d="M11.15,205.93h.07v0" style="fill:#fff"/><path d="M11.29,205.93h-.07v0" style="fill:#fff"/><path d="M11.29,205.93l-.06,0,0,0" style="fill:#fff"/><path d="M11.27,206l0-.08,0,0" style="fill:#fff"/><path d="M11.27,206,11.2,206l0,0" style="fill:#fff"/><path d="M11.17,206l.07-.05,0,0" style="fill:#fff"/><path d="M11.17,206l0-.08,0,0" style="fill:#fff"/><path d="M9.72,204.79l0,.07,0,0" style="fill:#fff"/><path d="M9.72,204.79l0,.07,0,0" style="fill:#fff"/><path d="M9.65,204.84l.06,0,0,0" style="fill:#fff"/><path d="M9.65,204.84h.08v0" style="fill:#fff"/><path d="M9.8,204.84H9.72v0" style="fill:#fff"/><path d="M9.8,204.84l-.07,0,0,0" style="fill:#fff"/><path d="M9.77,204.93l0-.07h0" style="fill:#fff"/><path d="M9.77,204.93l-.06,0,0,0" style="fill:#fff"/><path d="M9.68,204.93l.06,0,0,0" style="fill:#fff"/><path d="M9.68,204.93l0-.07h0" style="fill:#fff"/><path d="M10.31,206.38l0,.07h0" style="fill:#fff"/><path d="M10.31,206.38l0,.07h0" style="fill:#fff"/><path d="M10.24,206.43l.06,0,0,0" style="fill:#fff"/><path d="M10.24,206.43h.08v0" style="fill:#fff"/><path d="M10.39,206.43h-.08v0" style="fill:#fff"/><path d="M10.39,206.43l-.07,0,0,0" style="fill:#fff"/><path d="M10.36,206.52l0-.08,0,0" style="fill:#fff"/><path d="M10.36,206.52l-.07-.05,0,0" style="fill:#fff"/><path d="M10.27,206.52l.06-.05,0,0" style="fill:#fff"/><path d="M10.27,206.52l0-.08,0,0" style="fill:#fff"/><path d="M10.59,206.42l0,.08h0" style="fill:#fff"/><path d="M10.59,206.42l0,.08h0" style="fill:#fff"/><path d="M10.51,206.48l.07,0,0,0" style="fill:#fff"/><path d="M10.51,206.48h.08v0" style="fill:#fff"/><path d="M10.66,206.48h-.08v0" style="fill:#fff"/><path d="M10.66,206.48l-.06,0,0,0" style="fill:#fff"/><path d="M10.63,206.57l0-.08h0" style="fill:#fff"/><path d="M10.63,206.57l-.06,0,0,0" style="fill:#fff"/><path d="M10.54,206.57l.07,0,0,0" style="fill:#fff"/><path d="M10.54,206.57l0-.08h0" style="fill:#fff"/><path d="M10.33,206.9l0,.08h0" style="fill:#fff"/><path d="M10.33,206.9l0,.08h0" style="fill:#fff"/><path d="M10.25,207l.06,0,0,0" style="fill:#fff"/><path d="M10.25,207h.08v0" style="fill:#fff"/><path d="M10.4,207h-.08v0" style="fill:#fff"/><path d="M10.4,207l-.06,0,0,0" style="fill:#fff"/><path d="M10.37,207l0-.07h0" style="fill:#fff"/><path d="M10.37,207l-.06,0,0,0" style="fill:#fff"/><path d="M10.28,207l.06,0,0,0" style="fill:#fff"/><path d="M10.28,207l0-.07h0" style="fill:#fff"/><path d="M10,206.46l0,.08h0" style="fill:#fff"/><path d="M10,206.46l0,.08h0" style="fill:#fff"/><path d="M9.94,206.52l.07,0,0,0" style="fill:#fff"/><path d="M9.94,206.52H10v0" style="fill:#fff"/><path d="M10.09,206.52H10v0" style="fill:#fff"/><path d="M10.09,206.52l-.06,0,0,0" style="fill:#fff"/><path d="M10.06,206.61l0-.08h0" style="fill:#fff"/><path d="M10.06,206.61l-.06-.05,0,0" style="fill:#fff"/><path d="M10,206.61l.07-.05,0,0" style="fill:#fff"/><path d="M10,206.61l0-.08h0" style="fill:#fff"/><path d="M9.58,206.4l0,.08h0" style="fill:#fff"/><path d="M9.58,206.4l0,.08h0" style="fill:#fff"/><path d="M9.51,206.46l.06,0,0,0" style="fill:#fff"/><path d="M9.51,206.46h.08v0" style="fill:#fff"/><path d="M9.66,206.46H9.58v0" style="fill:#fff"/><path d="M9.66,206.46l-.07,0,0,0" style="fill:#fff"/><path d="M9.63,206.55l0-.08h0" style="fill:#fff"/><path d="M9.63,206.55l-.07-.05,0,0" style="fill:#fff"/><path d="M9.54,206.55l.06-.05,0,0" style="fill:#fff"/><path d="M9.54,206.55l0-.08h0" style="fill:#fff"/><path d="M7.63,205.81l0,.08h0" style="fill:#fff"/><path d="M7.63,205.81l0,.08h0" style="fill:#fff"/><path d="M7.55,205.87l.07,0,0,0" style="fill:#fff"/><path d="M7.55,205.87h.09v0" style="fill:#fff"/><path d="M7.71,205.87H7.63v0" style="fill:#fff"/><path d="M7.71,205.87l-.06,0,0,0" style="fill:#fff"/><path d="M7.68,206l0-.08h0" style="fill:#fff"/><path d="M7.68,206l-.07-.05,0,0" style="fill:#fff"/><path d="M7.58,206l.07-.05,0,0" style="fill:#fff"/><path d="M7.58,206l0-.08h0" style="fill:#fff"/><path d="M7.55,206.09l0,.07h0" style="fill:#fff"/><path d="M7.55,206.09l0,.07h0" style="fill:#fff"/><path d="M7.48,206.14l.06.05,0,0" style="fill:#fff"/><path d="M7.48,206.14h.08v0" style="fill:#fff"/><path d="M7.63,206.14H7.55v0" style="fill:#fff"/><path d="M7.63,206.14l-.07.05,0,0" style="fill:#fff"/><path d="M7.6,206.23l0-.07h0" style="fill:#fff"/><path d="M7.6,206.23l-.07,0,0,0" style="fill:#fff"/><path d="M7.51,206.23l.06,0,0,0" style="fill:#fff"/><path d="M7.51,206.23l0-.07h0" style="fill:#fff"/><path d="M8.73,205.59l0,.07h0" style="fill:#fff"/><path d="M8.73,205.59l0,.07h0" style="fill:#fff"/><path d="M8.66,205.64l.06.05,0,0" style="fill:#fff"/><path d="M8.66,205.64h.08v0" style="fill:#fff"/><path d="M8.81,205.64H8.73v0" style="fill:#fff"/><path d="M8.81,205.64l-.07.05,0,0" style="fill:#fff"/><path d="M8.78,205.73l0-.07h0" style="fill:#fff"/><path d="M8.78,205.73l-.06,0,0,0" style="fill:#fff"/><path d="M8.69,205.73l.06,0,0,0" style="fill:#fff"/><path d="M8.69,205.73l0-.07h0" style="fill:#fff"/><path d="M7.33,205.43v0h0" style="fill:#fff"/><path d="M7.33,205.43l0,0h0" style="fill:#fff"/><path d="M7.29,205.46l0,0v0" style="fill:#fff"/><path d="M7.29,205.46h0v0" style="fill:#fff"/><path d="M7.38,205.46h0v0" style="fill:#fff"/><path d="M7.38,205.46l0,0v0" style="fill:#fff"/><path d="M7.36,205.52v-.05h0" style="fill:#fff"/><path d="M7.36,205.52l0,0,0,0" style="fill:#fff"/><path d="M7.31,205.52l0,0v0" style="fill:#fff"/><path d="M7.31,205.52v-.05h0" style="fill:#fff"/><path d="M8.87,205.79l0,.05h0" style="fill:#fff"/><path d="M8.87,205.79v.05h0" style="fill:#fff"/><path d="M8.82,205.82l0,0v0" style="fill:#fff"/><path d="M8.82,205.82h0v0" style="fill:#fff"/><path d="M8.91,205.82H8.86v0" style="fill:#fff"/><path d="M8.91,205.82l0,0v0" style="fill:#fff"/><path d="M8.89,205.88v0h0" style="fill:#fff"/><path d="M8.89,205.88l0,0,0,0" style="fill:#fff"/><path d="M8.84,205.88l0,0,0,0" style="fill:#fff"/><path d="M8.84,205.88v0h0" style="fill:#fff"/><path d="M9,207v0H9" style="fill:#fff"/><path d="M9,207v0H9" style="fill:#fff"/><path d="M9,207.06l0,0v0" style="fill:#fff"/><path d="M9,207.06H9" style="fill:#fff"/><path d="M9,207.06H9" style="fill:#fff"/><path d="M9,207.06l0,0v0" style="fill:#fff"/><path d="M9,207.1v0H9" style="fill:#fff"/><path d="M9,207.1l0,0H9" style="fill:#fff"/><path d="M9,207.1l0,0H9" style="fill:#fff"/><path d="M9,207.1v0H9" style="fill:#fff"/><path d="M11.48,205.47a.14.14,0,0,0,0-.17.13.13,0,0,0-.16.06.13.13,0,0,0,0,.17A.12.12,0,0,0,11.48,205.47Zm-.06-.12c.07.05,0,.18-.08.13S11.35,205.3,11.42,205.35Z" style="fill:#009b3a"/><path d="M7.48,204a.11.11,0,0,0-.09,0H7.27v.26H7.4a.12.12,0,0,0,.08,0,.17.17,0,0,0,0-.16Zm-.11.16h0V204h.08s.05,0,.06.05v0a.08.08,0,0,1,0,.05Z" style="fill:#009b3a"/><path d="M7.13,204.09a.11.11,0,0,0,0-.06.09.09,0,0,0,0-.06s0,0,0,0H6.94v.26H7v-.09h.1a.15.15,0,0,1,0,.07v0h0a.17.17,0,0,0,0-.08Zm0,0H7V204h.13a0,0,0,0,1,0,0S7.11,204.05,7.1,204.05Z" style="fill:#009b3a"/><path d="M9.79,204.47a.12.12,0,0,0-.1-.14.11.11,0,0,0-.12.11.12.12,0,0,0,.09.14A.12.12,0,0,0,9.79,204.47Zm-.09-.09c.08,0,0,.17,0,.15S9.61,204.36,9.7,204.38Z" style="fill:#009b3a"/><path d="M9.43,204.37a.11.11,0,0,0,.05,0,.16.16,0,0,0,0-.07s0,0,0,0l-.15,0-.07.24,0,0,0-.09.08,0h0a.16.16,0,0,1,0,.07,0,0,0,0,1,0,0l0,0a.54.54,0,0,0,0-.08Zm0,0h0l-.08,0,0-.06.07,0h0a0,0,0,0,1,0,0S9.42,204.33,9.41,204.33Z" style="fill:#009b3a"/><path d="M10.34,204.74l.05,0s0-.06,0-.07a0,0,0,0,0,0,0l-.14-.06-.09.24h0l0-.08.08,0h0a.16.16,0,0,1,0,.07v0l0,0a.31.31,0,0,0,0-.07A.12.12,0,0,0,10.34,204.74Zm0,0h0l-.07,0,0-.06.07,0h0a0,0,0,0,1,0,0s0,0,0,0Z" style="fill:#009b3a"/><path d="M9.12,204.29a.11.11,0,0,0,.05,0,.16.16,0,0,0,0-.07.11.11,0,0,0-.05,0l-.15,0-.06.25H9l0-.09.08,0h0m0,0h0l-.08,0v-.06l.08,0h0l0,0a0,0,0,0,1,0,0Z" style="fill:#009b3a"/><path d="M10.05,204.61h0a.07.07,0,0,1-.1,0c-.07,0,0-.18.09-.13a0,0,0,0,1,0,0l0,0h0a.11.11,0,0,0-.22,0,.11.11,0,0,0,.05.16.12.12,0,0,0,.16-.05h0Z" style="fill:#009b3a"/></svg>