<?xml version="1.0" encoding="utf-8"?>
<!-- Generator: Adobe Illustrator 22.1.0, SVG Export Plug-In . SVG Version: 6.00 Build 0)  -->
<svg version="1.1"
	 id="svg2" inkscape:version="0.91 r13725" sodipodi:docname="header_button.svg" xmlns:cc="http://creativecommons.org/ns#" xmlns:dc="http://purl.org/dc/elements/1.1/" xmlns:inkscape="http://www.inkscape.org/namespaces/inkscape" xmlns:rdf="http://www.w3.org/1999/02/22-rdf-syntax-ns#" xmlns:sodipodi="http://sodipodi.sourceforge.net/DTD/sodipodi-0.dtd" xmlns:svg="http://www.w3.org/2000/svg"
	 xmlns="http://www.w3.org/2000/svg" xmlns:xlink="http://www.w3.org/1999/xlink" x="0px" y="0px" width="110px" height="259px"
	 viewBox="0 0 110 259" style="enable-background:new 0 0 110 259;" xml:space="preserve">
<style type="text/css">
	.st0{fill:#FFFFFF;}
	.st1{fill:#EAEAEA;}
	.st2{fill:#8F9295;}
</style>
<sodipodi:namedview  bordercolor="#666666" borderopacity="1" fit-margin-bottom="10" gridtolerance="10" guidetolerance="10" id="namedview44" inkscape:current-layer="svg2" inkscape:cx="3.258027" inkscape:cy="31.284367" inkscape:guide-bbox="true" inkscape:pageopacity="0" inkscape:pageshadow="2" inkscape:window-height="957" inkscape:window-maximized="1" inkscape:window-width="1920" inkscape:window-x="0" inkscape:window-y="1" inkscape:zoom="5.1545065" objecttolerance="10" pagecolor="#ffffff" showgrid="false" showguides="true">
	<sodipodi:guide  id="guide4204" orientation="0,1" position="40.07786,160.92715"></sodipodi:guide>
</sodipodi:namedview>
<g id="g6" transform="translate(-9.6,-9.60001)">
	<path id="path8" inkscape:connector-curvature="0" class="st0" d="M17.6,10.3h3v18.9h-3V10.3z"/>
	<path id="path10" inkscape:connector-curvature="0" class="st0" d="M9.6,18.2h18.9v3H9.6V18.2z"/>
</g>
<g id="g22" transform="translate(0,-833.36001)">
	<path id="path24" inkscape:connector-curvature="0" class="st1" d="M1.2,955.6V970c0,1.3,1,2.3,2.2,2.3h9c1.2,0,2.2-1,2.2-2.3
		v-14.4H1.2 M5.5,969.7H3.8v-11.4h1.7V969.7 M8.9,969.7H7.2v-11.4H9v11.4H8.9z M12.4,969.7h-1.7v-11.4h1.7V969.7"/>
	<path id="path26" inkscape:connector-curvature="0" class="st1" d="M0,955.4h15.9v2.7H0V955.4z"/>
	<path id="path28" inkscape:connector-curvature="0" class="st1" d="M6,952.5L4.3,954h7.3l-1.6-1.5H6z"/>
	<path id="path30" inkscape:connector-curvature="0" class="st1" d="M18,998.2H2c-1.1,0-2,0.9-2,2v10c0,1.1,0.9,2,2,2h15.9
		c1.1,0,2-0.9,2-2v-10C20,999,19.1,998.2,18,998.2 M10.4,1009.4v-2.9H4.6v-2.8h5.7v-3.2l4.9,4.5L10.4,1009.4"/>
	<path id="path32" inkscape:connector-curvature="0" class="st1" d="M1.9,997h10.5c0,0-0.2-0.9-0.8-1.4s-1.4-0.6-1.4-0.6h-6
		c0,0-0.8,0-1.5,0.6C1.9,996.2,1.9,997,1.9,997"/>
</g>
<path id="path34" inkscape:connector-curvature="0" class="st2" d="M9.4,214.2c-1,0.7-2.1,1.1-3.5,1.1c-3.3,0-5.9-2.7-5.9-5.9
	c0-3.3,2.7-5.9,5.9-5.9s5.9,2.7,5.9,5.9c0,1.3-0.4,2.5-1.1,3.5l3.9,3.9c0.4,0.4,0.4,1,0,1.4s-1,0.4-1.4,0L9.4,214.2 M6,213.9
	c2.6,0,4.6-2,4.6-4.6s-2-4.6-4.6-4.6s-4.6,2-4.6,4.6C1.4,211.9,3.5,213.9,6,213.9"/>
<g id="g36" transform="matrix(1.0052632,0,0,1.0408247,0,-877.27357)">
	<path id="path38" inkscape:connector-curvature="0" class="st2" d="M0,1089.9h16.9v1.8H0V1089.9z"/>
	<path id="path40" inkscape:connector-curvature="0" class="st2" d="M0,1085.1h16.9v1.8H0V1085.1z"/>
	<path id="path42" inkscape:connector-curvature="0" class="st2" d="M0,1080.2h16.9v1.8H0V1080.2z"/>
</g>
<path id="path4179" inkscape:connector-curvature="0" class="st2" d="M60.5,244.1l-3.5,3.2V245c0,0-3.7,0.2-5,3.3
	c-0.9,2.1,0.3,4.1,0.3,4.1l-1.3,1.2c0,0-1.9-2.4-0.7-5.7c1.9-4.8,6.7-4.6,6.7-4.6V241L60.5,244.1L60.5,244.1z"/>
<path id="path4181" inkscape:connector-curvature="0" class="st2" d="M53.6,255.9l3.5-3.2v2.3c0,0,3.7-0.2,5-3.3c0.8-2-0.3-4-0.3-4
	l1.2-1.3c0,0,1.9,2.4,0.7,5.7c-1.8,4.8-6.6,4.6-6.6,4.6v2.3L53.6,255.9L53.6,255.9z"/>
<polygon id="polygon3357" class="st2" points="100,253.5 105.9,248 107,249.2 102.4,253.5 107,257.8 105.9,259 "/>
<polygon id="polygon3358" class="st1" points="55,49.5 40,40 40,59 45.8,55.3 "/>
<path id="path59_2_" inkscape:connector-curvature="0" class="st1" d="M56.7,60l3.8-4l1,0.9L56.8,62l-2.3-2.4l1-0.9L56.7,60z"/>
<path id="path3361" inkscape:connector-curvature="0" class="st1" d="M62.2,54.9v8.3H54v-8.3H62.2 M63,54H53v10h10V54L63,54z"/>
<path id="path3363" inkscape:connector-curvature="0" class="st1" d="M56.2,91"/>
<path id="path3365" inkscape:connector-curvature="0" class="st1" d="M49.3,98.9"/>
<rect id="rect3367" x="40" y="79.1" class="st1" width="4" height="19"/>
<path id="path59" inkscape:connector-curvature="0" class="st1" d="M58.7,99l3.8-4l1,0.9l-4.7,5.1l-2.3-2.4l1-0.9L58.7,99z"/>
<path id="path3370" inkscape:connector-curvature="0" class="st1" d="M64.1,93.9v8.3h-8.2v-8.3H64.1 M65,93H55v10h10V93L65,93z"/>
<rect id="rect3372" x="48" y="79.1" class="st1" width="4" height="19"/>
<polygon class="st1" points="0,40 0,59 15,49.5 "/>
<g>
	<rect x="14" y="55" class="st1" width="2" height="2"/>
	<rect x="17" y="55" class="st1" width="2" height="2"/>
	<rect x="20" y="55" class="st1" width="2" height="2"/>
	<rect x="14" y="58" class="st1" width="2" height="2"/>
	<rect x="17" y="58" class="st1" width="2" height="2"/>
	<rect x="20" y="58" class="st1" width="2" height="2"/>
	<rect x="14" y="61" class="st1" width="2" height="2"/>
	<rect x="17" y="61" class="st1" width="2" height="2"/>
	<rect x="20" y="61" class="st1" width="2" height="2"/>
</g>
<rect y="79.1" class="st1" width="4" height="19"/>
<rect x="8" y="79.1" class="st1" width="4" height="19"/>
<g>
	<rect x="16" y="95" class="st1" width="2" height="2"/>
	<rect x="19" y="95" class="st1" width="2" height="2"/>
	<rect x="22" y="95" class="st1" width="2" height="2"/>
	<rect x="16" y="98" class="st1" width="2" height="2"/>
	<rect x="19" y="98" class="st1" width="2" height="2"/>
	<rect x="22" y="98" class="st1" width="2" height="2"/>
	<rect x="16" y="101" class="st1" width="2" height="2"/>
	<rect x="19" y="101" class="st1" width="2" height="2"/>
	<rect x="22" y="101" class="st1" width="2" height="2"/>
</g>
</svg>
