<?xml version="1.0" encoding="UTF-8"?>
<svg xmlns="http://www.w3.org/2000/svg" xmlns:xlink="http://www.w3.org/1999/xlink" width="204pt" height="150pt" viewBox="0 0 204 150" version="1.1">
<g id="surface1">
<path style=" stroke:none;fill-rule:nonzero;fill:rgb(25.490196%,80.392157%,32.156863%);fill-opacity:1;" d="M 28.015625 0 L 203.824219 0 L 203.824219 121.515625 C 194.382812 131.011719 184.910156 140.476562 175.417969 149.910156 L 0 149.910156 L 0 28.03125 C 9.300781 18.652344 18.679688 9.34375 28.015625 0 Z M 28.015625 0 "/>
<path style=" stroke:none;fill-rule:nonzero;fill:rgb(100%,100%,100%);fill-opacity:1;" d="M 53.988281 31.542969 C 60.660156 27.117188 68.917969 25.996094 76.765625 26.070312 C 84.238281 26.160156 92.082031 27.476562 98.277344 31.945312 C 102.777344 35.117188 105.703125 40.011719 107.652344 45.074219 C 110.804688 53.390625 111.730469 62.367188 111.839844 71.203125 C 111.851562 80.097656 111.449219 89.191406 108.511719 97.667969 C 106.542969 103.433594 102.796875 108.554688 97.855469 112.109375 C 101.414062 117.886719 105.039062 123.617188 108.59375 129.394531 C 104.125 131.457031 99.671875 133.535156 95.195312 135.59375 C 91.390625 129.296875 87.601562 122.984375 83.78125 116.695312 C 78.613281 117.546875 73.328125 117.480469 68.136719 116.90625 C 61.914062 116.15625 55.574219 114.253906 50.773438 110.058594 C 47.085938 106.855469 44.769531 102.378906 43.1875 97.824219 C 40.59375 90.121094 39.894531 81.921875 39.777344 73.835938 C 39.714844 65.097656 40.269531 56.222656 42.898438 47.839844 C 44.933594 41.53125 48.300781 35.242188 53.988281 31.542969 Z M 53.988281 31.542969 "/>
<path style=" stroke:none;fill-rule:nonzero;fill:rgb(100%,100%,100%);fill-opacity:1;" d="M 129.761719 31.261719 C 134.441406 31.257812 139.117188 31.257812 143.792969 31.261719 C 143.804688 37.460938 143.789062 43.65625 143.800781 49.855469 C 149.78125 49.863281 155.757812 49.855469 161.734375 49.859375 C 161.632812 53.882812 161.523438 57.910156 161.410156 61.933594 C 155.433594 61.945312 149.464844 61.929688 143.492188 61.941406 C 143.507812 72.101562 143.460938 82.265625 143.515625 92.429688 C 143.628906 95.210938 143.566406 98.144531 144.789062 100.714844 C 145.679688 102.695312 148.082031 103.203125 150.035156 103.269531 C 153.71875 103.257812 157.398438 103.039062 161.082031 102.976562 C 161.308594 106.671875 161.523438 110.371094 161.734375 114.070312 C 154.40625 115.304688 146.71875 116.78125 139.4375 114.472656 C 136.371094 113.5625 133.511719 111.523438 132.269531 108.484375 C 130.042969 103.316406 129.859375 97.5625 129.761719 92.011719 C 129.753906 81.988281 129.761719 71.964844 129.757812 61.941406 C 126.5 61.933594 123.238281 61.945312 119.976562 61.933594 C 119.96875 57.914062 119.96875 53.886719 119.976562 49.863281 C 123.238281 49.851562 126.492188 49.867188 129.753906 49.855469 C 129.769531 43.65625 129.75 37.460938 129.761719 31.261719 Z M 129.761719 31.261719 "/>
<path style=" stroke:none;fill-rule:nonzero;fill:rgb(25.490196%,80.392157%,32.156863%);fill-opacity:1;" d="M 70.8125 38.78125 C 75.351562 38.191406 80.117188 38.347656 84.414062 40.070312 C 87.894531 41.449219 90.851562 44.152344 92.414062 47.574219 C 94.808594 52.761719 95.726562 58.488281 96.191406 64.144531 C 96.691406 71.671875 96.621094 79.265625 95.585938 86.75 C 94.855469 91.203125 93.820312 95.894531 90.8125 99.40625 C 87.757812 102.929688 83.050781 104.441406 78.535156 104.796875 C 73.769531 105.144531 68.742188 104.796875 64.441406 102.535156 C 61.933594 101.195312 59.800781 99.097656 58.558594 96.523438 C 57.046875 93.441406 56.21875 90.074219 55.636719 86.707031 C 53.882812 76.023438 53.457031 64.964844 55.855469 54.34375 C 56.84375 50.335938 58.285156 46.226562 61.203125 43.203125 C 63.746094 40.617188 67.285156 39.28125 70.8125 38.78125 Z M 70.8125 38.78125 "/>
</g>
</svg>
